<svg xmlns="http://www.w3.org/2000/svg" viewBox="0 0 743.61 242.17"><defs><style>.cls-1{fill:#1da0a3;}</style></defs><g id="Capa_2" data-name="Capa 2"><g id="Capa_1-2" data-name="Capa 1"><path class="cls-1" d="M433.18,146.8c-1.83-15.43-10-26.3-24-32.74-3.37-1.55-7-2.61-11-4.09l2.53-1c13.77-5.64,21.84-15.4,22-30.74.15-14-4.78-25.91-15.8-34.82C396.6,35,384.43,32.26,371.44,32.29q-32.12.08-64.23.07c-3.4,0-3.4,0-3.4,3.42q0,84.73-.06,169.45c0,2.3.65,2.93,3,2.92,22.07-.09,44.15,0,66.23-.13a99.61,99.61,0,0,0,17.33-1.54c14.5-2.7,26.45-9.81,34.73-22.23C432.57,172.9,434.76,160.21,433.18,146.8Zm-93.6-66.22c0-4.82.07-9.65,0-14.47,0-1.77.43-2.55,2.35-2.53,9.65.07,19.31-.07,29,.06,7.87.11,13.77,4.36,15.83,11,2.28,7.41.09,14.78-5.74,19a22,22,0,0,1-12.71,3.76c-8.65.14-17.31,0-26,.09-2.28,0-2.81-.82-2.75-2.92C339.67,89.9,339.58,85.24,339.58,80.58Zm49,91.46c-4.84,3.64-10.57,4.7-16.49,4.74-9.9.07-19.81,0-29.71.05-2.17,0-2.88-.68-2.84-2.87.12-7.33,0-14.65,0-22h0c0-7.24.07-14.49,0-21.73,0-2.11.7-2.69,2.73-2.68,9.9.08,19.82-.19,29.72.1,10.33.31,19.22,3.74,23.6,14C399.48,150.87,398.33,164.73,388.57,172Z"/><path class="cls-1" d="M743.61,34.84q-.08,86.23,0,172.48c0,.65-.08,1.3-.12,2a4.19,4.19,0,0,1-4.77-1.21q-25.93-25.26-51.95-50.44-20.67-20.08-41.3-40.25c-3.46-3.37-6.94-6.7-10.43-10-.57-.55-1.21-1-2.44-2.08V207.89c-.86.08-1.5.19-2.13.19-9.5,0-19,0-28.5.06-2.1,0-2.66-.64-2.66-2.69q.08-86,0-172c0-.74.1-1.48.14-2.22,2-.93,3.37-.25,4.73,1.09q14.7,14.43,29.45,28.81l38.52,37.64q14.91,14.58,29.83,29.14c2.47,2.41,5,4.78,8,7.68v-4.1q0-48-.05-96c0-2.46.55-3.3,3.17-3.25,9.32.17,18.66.12,28,0C743.05,32.28,743.62,32.85,743.61,34.84Z"/><path class="cls-1" d="M578.38,84.06C575.71,70.51,569.3,59,558.62,50,544.28,37.92,527.16,33.21,509,32.56c-17.72-.64-35.48-.16-53.23-.27-2.16,0-2.82.5-2.82,2.76q.09,84.86,0,169.72V208c.91.06,1.39.12,1.88.12h30.49c3.3,0,3.28,0,3.28-3.2,0-11.49.07-23,0-34.49,0-2.09.67-2.68,2.71-2.71,7.74-.08,15.49-.06,23.2-.59a80.55,80.55,0,0,0,34-9.89c12.11-6.74,21.11-16.37,26.34-29.3C580.58,113.68,581.32,99,578.38,84.06Zm-36.73,28.25c-2.65,12.25-11.11,19-22.86,22.12-9.38,2.49-19,2-28.53,2.06-1.64,0-1.65-1-1.65-2.13V100.13h0c0-11.25.05-22.49,0-33.73,0-2.23.71-3,2.87-2.82,8.11.55,16.32.43,24.33,1.64,9.71,1.46,18,6,22.94,15A32.66,32.66,0,0,1,542.86,96,75.55,75.55,0,0,1,541.65,112.31Z"/><path class="cls-1" d="M250.84,84.29c-10.13-29.13-28.92-51.07-55.35-66.41C168.85,2.41,140-2.78,109.48,1.38a129.78,129.78,0,0,0-46.9,15.81A123.55,123.55,0,0,0,18.22,59.08c-16,25.3-21.58,52.7-16.28,82.12C7.66,173,24.53,197.92,50.38,216.78c23.23,17,49.5,24.95,78.28,25.39,7.43-.72,15-1,22.3-2.23,27.22-4.67,51-16.39,70.64-36,20.34-20.24,32.32-44.61,34.85-73.23A110.57,110.57,0,0,0,250.84,84.29Zm-22.08,103c-19.27,25.78-45.3,40.85-76.65,47a116.94,116.94,0,0,1-29,2.11c-28.22-1.56-53.6-10.61-75.55-28.76a113.81,113.81,0,0,1-34.83-48.4,110,110,0,0,1,4.78-87.55,113.9,113.9,0,0,1,31.3-38.55,124.72,124.72,0,0,1,51.76-24.7,64.55,64.55,0,0,1,6.85-1.3c7-.75,14-1.36,21-2,25.94.21,49.79,7.29,71.14,21.68,25.58,17.24,42.8,40.85,49.11,71.31C255.39,130.58,248.69,160.56,228.76,187.24Z"/><path class="cls-1" d="M232.21,172.31c-13,23.21-32.09,39.65-56.58,49.84a105.11,105.11,0,0,1-32.55,8c-4.38.34-5.6-.93-5.63-5.44,0-7.66,0-15.33-.13-23-.3-19-.67-38-1-56.94,0-1.09.34-3.11.6-3.12,1.56-.07,3.53-.21,4.65.63,7.7,5.75,16.12,6.5,25.1,4.17a10.92,10.92,0,0,0,1.63-.58c1.4-.61,2.72-1.61,1.94-3.17-.33-.66-2.07-.85-3.17-.86-3.82,0-7.64.23-11.46.18a5.57,5.57,0,0,1-3.32-1.61l2.89-.45c4.9-.8,9.82-1.54,14.7-2.45a6.19,6.19,0,0,0,3.3-1.63c.82-.9,1.64-2.49,1.39-3.52-.43-1.8-2.2-1.65-3.75-1.16-3.32,1.05-6.59,2.26-10,3.11a53.74,53.74,0,0,1-6.87.87c-.1-.33-.19-.67-.29-1a17.18,17.18,0,0,1,2.49-1.63c2.06-.9,4.23-1.53,6.23-2.52.82-.41,1.32-1.46,2-2.22-.85-.56-1.73-1.63-2.54-1.58-3.18.19-6.5.26-9.46,1.28a27.81,27.81,0,0,0-7.82,4.76,8.85,8.85,0,0,1-7,1.77c-.61-.07-1.32-1-1.59-1.7a7.3,7.3,0,0,1-.07-2.48c0-5.91.11-6.17,6.11-6.34a168.89,168.89,0,0,0,35.52-4.73,2.86,2.86,0,0,1,2.24,1.16c1.8,2.59,3.22,5.47,5.16,7.94A15.8,15.8,0,0,0,190,132.1a4.31,4.31,0,0,0,4-.7c.62-.57.36-2.71-.21-3.78-1.48-2.77-3.36-5.34-5.07-8a3.68,3.68,0,0,1-.78-1.52,3,3,0,0,1,.54-2c.2-.23,1.14.17,1.74.32.14,0,.26.21.37.34,4.17,4.82,9.64,6.95,15.81,7.44a17.51,17.51,0,0,0,5.39-.51,2.75,2.75,0,0,0,2.1-3.48c-.36-1.62-1.61-2-3.2-2.2-3-.32-6-.88-9-1.42a3.36,3.36,0,0,1-1.74-.9,7.07,7.07,0,0,1-1-1.82,8.19,8.19,0,0,1,1.92-.6c5.37-.33,10.77-.4,16.11-1,2.24-.24,4.38-1.48,6.53-2.34.68-.28,1.57-.66,1.83-1.23a31.1,31.1,0,0,0,1.29-4.21c-1.3-.27-2.7-1-3.87-.72-2.9.68-5.68,1.83-8.53,2.75a26.43,26.43,0,0,1-4.07,1.13,12.57,12.57,0,0,1-2.91-.19,22,22,0,0,1,2.15-2.07c4.08-3,8.38-5.69,12.24-8.92,2.41-2,1.13-5.45-2-5.77-1.08-.11-2.46.75-3.38,1.54-1.3,1.13-2.25,2.66-3.49,3.89-.44.44-1.27.5-1.92.73a5.94,5.94,0,0,1,.17-2c1.87-4,3.84-7.94,5.74-11.92,1.35-2.83,1-4.58-1.13-5.5-2.32-1-4.06,0-5.29,2.94q-2.72,6.55-5.59,13a12.52,12.52,0,0,1-1.66,2.3l-.74-.19a16.88,16.88,0,0,1-.11-2.35c.21-2.4.66-4.78.72-7.17.06-2.7-1.15-3.95-3.38-4s-3.39,1-3.39,3.89a35.73,35.73,0,0,1-3.84,16.6,15.73,15.73,0,0,1-2.65,3.59c-.48.51-1.42.6-2.15.87a7.63,7.63,0,0,1-.39-2.22c.11-1.06.57-2.08.76-3.13.29-1.63.84-3.48-1.38-4.2-2.07-.67-3.56.36-4.54,2.13-1.26,2.25-2.2,4.72-3.71,6.77a30.65,30.65,0,0,1-5.81,6c-.9.69-2.74.15-4.15.17a16,16,0,0,1,.64-4.09c.78-1.81,2.19-3.34,3-5.15,1.12-2.6.05-4.88-2.34-5.61a4.36,4.36,0,0,0-5.46,3.4,38.17,38.17,0,0,1-1.55,5.76,18.67,18.67,0,0,1-3.17,5c-.48.54-1.91.24-2.91.32,0-.83-.1-1.66,0-2.48a4.61,4.61,0,0,1,.46-1.15c.52-1.38.87-2.8-.66-3.78a3,3,0,0,0-4.21.8c-1.44,1.81-2.63,3.83-3.91,5.77a11.63,11.63,0,0,1-1.19,1.89,9.56,9.56,0,0,1-1.93,1.22,6.79,6.79,0,0,1-.21-2.21c.7-2.82,1.55-5.6,2.33-8.4a9,9,0,0,0,.28-1.71c.1-1.68.35-3.5-1.93-4s-3.56.59-4.32,2.51c-1,2.47-1.88,5-2.83,7.46-.2.54-.29,1.26-.69,1.56a3.43,3.43,0,0,1-2.15.83c-.4,0-1-1.06-1-1.65-.1-4.08-.17-8.17,0-12.25,0-.75,1.31-2.08,2-2.07a101.09,101.09,0,0,0,23-2.53,6,6,0,0,1,2.86.56c7,2.33,14.08,3.51,21.3,1.39A20.73,20.73,0,0,0,190,90.68c.79-.58.72-2.3,1-3.5-1.18-.23-2.41-.82-3.52-.63-2.52.43-5,1.35-7.47,1.81-.78.15-1.7-.53-2.56-.83a7,7,0,0,1,1.7-1.45A115.58,115.58,0,0,0,206.8,70.31c.53-.41,1.23-.73,1.53-1.27a21,21,0,0,0,1.11-3c-1.16-.4-2.41-1.29-3.45-1.09-1.48.28-2.8,1.37-4.19,2.11l-3.39,1.76-.71-.66c.77-1.34,1.49-2.72,2.32-4,1.26-2,2.68-3.81,3.85-5.81.84-1.44,1.14-3.11-.52-4.24a3.42,3.42,0,0,0-4.56.46A9.85,9.85,0,0,0,197.15,57c-2.85,5.26-5.64,10.56-8.53,15.79a10.78,10.78,0,0,1-2,2.07l-.73-.49c.47-1.62,1-3.23,1.39-4.89.63-2.91,1.25-5.83,1.67-8.78.3-2.06-.57-3.8-2.79-4-2-.17-3.15,1.25-3.5,3.2-.69,3.84-1.24,7.71-2.1,11.52a17.26,17.26,0,0,1-2.22,5.21c-.42.67-1.74.77-2.66,1.13a7.74,7.74,0,0,1-.4-2.67c.39-1.79.8-3.48-.93-4.76a3.5,3.5,0,0,0-5.68,2.06c-.57,2.24-.53,4.63-1.15,6.84-.3,1.07-1.49,1.9-2.28,2.83l-.74-.48c0-3.15,0-6.29,0-9.44,0-1.65-.3-3.4-2.12-3.27a4.61,4.61,0,0,0-3.16,2.54c-.87,2.11-1,4.52-1.59,6.75a17.23,17.23,0,0,1-1.9,4.3,2.37,2.37,0,0,1-2,1c-.54-.15-1-1.19-1.18-1.91-.27-1.29,0-2.73-.48-3.92-.34-.9-1.41-2.06-2.2-2.09a3.7,3.7,0,0,0-2.57,1.78,25.27,25.27,0,0,0-1.81,4.34l-1.19-.21c0-.85-.07-1.7,0-2.54.2-2,.13-3.72-2.2-4.36a3.66,3.66,0,0,0-4.71,2.58c-.53,1.65-.75,3.4-1.26,5.06-.16.52-.81.89-1.23,1.33-.32-.51-.9-1-.91-1.54-.07-3.33,0-6.66,0-10,0-1.49.78-2,2.2-2a82.8,82.8,0,0,0,35.81-8.67c4.83-2.43,9.06-6.07,13.44-9.32,1.46-1.09,2.36-2.87.8-4.54s-3.35-1-4.93.21S178.41,50,176.89,51a2.11,2.11,0,0,1-2,0,2.2,2.2,0,0,1-.2-2c1.1-2.69,2.4-5.3,3.51-8a14.51,14.51,0,0,0,1-3.6,3.53,3.53,0,0,0-3-4.17c-2.1-.27-3.45.63-4.08,2.76-1.37,4.7-2.76,9.39-4.38,14a13.94,13.94,0,0,1-2.79,4.38c-.52.58-1.71.58-2.59.84a8.45,8.45,0,0,1-.12-2.54c.85-3.12,2-6.16,2.73-9.31s-.16-4.59-2.54-4.86c-2.55-.3-4.08,1.15-4.17,4.33a23.75,23.75,0,0,1-4,13.15,24.2,24.2,0,0,1-3.62,4.08c-.48.45-1.49.31-2.26.44a8.8,8.8,0,0,1,.09-2.06c.49-1.74,1.22-3.43,1.64-5.19a3,3,0,0,0-2.13-3.95c-2-.64-3.25.33-4.07,2a68.46,68.46,0,0,1-3,6.3,8.57,8.57,0,0,1-3.62,3.4c-1.83.74-3.51-.27-3.78-2.44a51,51,0,0,1-.45-7.2c.05-2.38,1.84-3,3.89-3.41a67.26,67.26,0,0,0,10.78-2.84c5.44-2.19,8-6.77,7.77-12.47-.07-1.66-.56-3-2.31-3.38s-2.72.81-3.36,2.3c-.84,2-1.67,4-2.6,5.93a4.36,4.36,0,0,1-1.48,2,12.71,12.71,0,0,1-3.06.87c-.13-1-.57-2.07-.33-3,.68-2.56,1.75-5,2.45-7.58.84-3,0-5.19-2-6-2.2-.93-4-.15-4.66,2.16-.84,2.78-1.46,5.63-2.43,8.36-.32.9-1.42,1.52-2.16,2.26a9.29,9.29,0,0,1-1.06-2.79c-.13-3,0-6,0-9,0-2.16-.74-3.82-3.12-4.08-2.2-.24-3.86.76-4.25,2.95a51.62,51.62,0,0,0-.49,6.93c-.1,2.58,0,5.17-.22,7.73-.07.82-.93,1.56-1.43,2.33-.71-.67-1.77-1.23-2-2-1.23-3.52-2.12-7.17-3.39-10.68A4.59,4.59,0,0,0,115,25.2a3.05,3.05,0,0,0-3.73,4c.63,2.14,1.81,4.13,2.43,6.27.3,1-.13,2.26-.23,3.41-1.22-.45-3-.55-3.55-1.42a20.59,20.59,0,0,1-2.41-5.91c-.73-2.62-1.77-3.72-3.73-3.35-2.11.39-3.22,2.29-2.9,4.77.71,5.42,3.63,9.39,8.12,12.27a26.76,26.76,0,0,0,12.67,4.14c1.45.1,2.14.43,2.09,2-.08,2.49-.08,5,0,7.49.06,2.29-1.45,2.23-3,2.21-1.92,0-1.83-1.36-1.67-2.64.12-1,.45-1.94.59-2.93.32-2.37-.9-4.11-3-4.37a3.7,3.7,0,0,0-4,3.59c-.14,1.39-.21,2.79-.35,4.18,0,.23-.23.44-.35.66l-.85.13a33.75,33.75,0,0,1-1.58-4c-.36-1.36-.34-2.81-.61-4.19-.34-1.75-1.43-2.94-3.26-2.79s-2.71,1.48-2.55,3.34.35,3.47.48,5.2c.07.88,0,1.76,0,2.64l-.78.49c-.92-1-2.3-1.86-2.66-3A97.85,97.85,0,0,1,97.5,46.53,57.79,57.79,0,0,1,97,40.07c-.18-2.13-1.7-3.6-3.52-3.41-2.22.24-2.54,1.79-2.44,3.62.19,3.74.41,7.48.47,11.22A7.62,7.62,0,0,1,90.56,54c-.73-.63-1.88-1.13-2.13-1.91-1.61-5.24-2.91-10.57-4.61-15.78a5.59,5.59,0,0,0-3-3.12,2.89,2.89,0,0,0-3.63,3.26c.45,3.33,1.57,6.57,2.3,9.86.3,1.33.94,3.53.4,3.93-1.66,1.22-2.79-.6-3.85-1.68-1.75-1.78-3.4-3.66-5.07-5.51s-3.55-2-5-.87-1.52,3.24.06,5.08c6,7,13.55,12,22,15.67a80.14,80.14,0,0,0,31.65,7c2.13,0,3.49,1,3.5,3.33,0,2.75.1,5.51-.07,8.25,0,.83-.86,1.62-1.32,2.43-.78-.51-1.83-.85-2.28-1.56-1.13-1.83-2-3.85-3-5.76-.75-1.42-1.79-2.56-3.57-1.83s-1.9,2.06-1.58,3.75,1,4-1.46,4.91c-1.91.73-4.26-.42-5.18-2.85-.85-2.22-1.07-4.67-1.64-7-.23-1-.41-2.2-1.07-2.69-.88-.65-2.53-1.26-3.26-.84a4.43,4.43,0,0,0-2,3.22c0,2,.88,4.05,1,6.1.09,1.15-.52,2.34-.81,3.52-1.18-.54-3.09-.81-3.41-1.67A60.64,60.64,0,0,1,91,71.79c-.54-2.71-1.6-3.89-4-3.67-2.16.19-3,1.33-2.89,4,.06,1.24.46,2.48.41,3.7,0,.71-.51,1.82-1,2a2.78,2.78,0,0,1-2.41-.53,8.93,8.93,0,0,1-1.75-3.24c-1.39-4.26-2.68-8.56-4-12.86-.47-1.55-1.14-2.8-3.05-2.68a2.58,2.58,0,0,0-2.46,2.94c.17,3,.82,6,1.22,9,.13,1,.08,2,.12,3-1.14-.47-2.59-.66-3.35-1.48-2.57-2.78-2.66-6.5-3.46-10-.31-1.34-1.07-3-2.14-3.59a4.69,4.69,0,0,0-4.06.39c-.76.51-1,2.37-.86,3.51A45.55,45.55,0,0,0,59.15,68c.11.34-.12.77-.27,1.57a24.53,24.53,0,0,1-3-1.39c-2-1.32-4-2.73-5.95-4.13-1.54-1.09-3.24-1.84-4.7-.24s-.63,3.42.85,4.55c4.5,3.42,8.87,7.09,13.73,9.9,5.59,3.22,11.64,5.63,17.49,8.4.77.36,1.53.74,2.29,1.12-.06.29-.12.59-.19.88a23.53,23.53,0,0,1-3.68-.32c-1.61-.4-3.12-1.25-4.73-1.52-1-.17-2.91.18-3,.66a4.4,4.4,0,0,0,.57,3.58,10.29,10.29,0,0,0,4,2.29c6.28,2.32,12.7,1.87,18.87-.07a17.51,17.51,0,0,1,9.92-.44c1.68.42,3.47.35,5.19.61a11.69,11.69,0,0,1,2.15.75c0,.33,0,.65,0,1-1.51.3-3,.63-4.52.89-1.23.2-2.88-.36-3.12,1.62s1.32,2.45,2.63,2.77c5.15,1.26,10.06.25,14.79-1.9,1-.48,2.07-1,3.45-1.63,0,4.25.14,8.2-.08,12.14a2.6,2.6,0,0,1-2.88,2.5,3,3,0,0,1-3-2.43c-.28-.86-.32-1.8-.58-2.68-.61-2.08-2.72-3.1-5-2.3-2.08.73-2.1,2.31-1.37,4.07.41,1,.81,2,1.16,3,.7,2-.15,3.11-2.25,2.77-3.25-.52-5.37-2.72-6.75-5.43A79,79,0,0,1,98,100.28c-.92-2.47-2.81-3.4-4.83-2a4.58,4.58,0,0,0-1.62,3.27,8.66,8.66,0,0,0,1.34,3.93c.91,1.67,2.28,3.11,3.07,4.83.44,1,.12,2.29.13,3.44-1.25,0-2.88.37-3.69-.26a13.29,13.29,0,0,1-3.24-4.28,33.25,33.25,0,0,1-1.8-4.9c-.57-1.63-1.55-2.86-3.42-2.67-2,.2-2.73,1.67-2.77,3.53a10.48,10.48,0,0,1,0,2.24c-.23.88-.56,2.15-1.19,2.4a2.82,2.82,0,0,1-2.6-.75,19,19,0,0,1-1.92-4.47c-.72-2.1-1-4.46-2.1-6.28a4.91,4.91,0,0,0-4.07-1.87c-1.91.36-1.61,2.35-1.15,4a19.32,19.32,0,0,1,.81,3.38,9.84,9.84,0,0,1-.42,2.53c-.9-.23-2.29-.16-2.62-.72-1.66-2.82-3.48-5.68-4.41-8.77-1-3.37-1.23-7-1.62-10.55s-1.26-4.48-3.9-4.2c-2.42.25-3.75,2.31-3.19,5.21.36,1.87,1,3.68,1.47,5.53.21.84.28,1.71.41,2.57-.25.17-.5.34-.76.5a8.61,8.61,0,0,1-1.85-2c-2-4.22-3.8-8.5-5.68-12.76-.27-.61-.58-1.2-.8-1.83a2.61,2.61,0,0,0-3.37-1.78,2.41,2.41,0,0,0-2,3.17c.71,2.89,1.67,5.72,2.59,8.55.63,2,1.37,3.88,2.06,5.81l-.56.64a23.33,23.33,0,0,1-2.57-1.23c-1.61-1-3-2.46-4.79-3.09-1.17-.42-2.74.24-4.13.42.32,1.35.17,3.24,1,3.94,3.88,3.23,8,6.15,12.12,9.13,1.19.87,2.5,1.56,3.85,2.4-1.18,1.87-2.8,1.47-4.1,1.07-3.23-1-6.39-2.29-9.57-3.47-.62-.23-1.26-.79-1.82-.71-1.22.18-3.1.37-3.43,1.12a4,4,0,0,0,.73,3.68,21.67,21.67,0,0,0,6.67,3.67,32.06,32.06,0,0,0,17,.93,12.24,12.24,0,0,1,2.57,0c.08.25.16.51.25.77a28.36,28.36,0,0,1-3.82,1.73c-2.78.82-5.61,1.46-8.43,2.14-1.71.42-3.41.94-3.18,3.13s2,2.54,3.68,2.59c7.49.24,14.39-1.27,19.89-6.89,1.68-1.72,3-1.45,5.35,1.19-1.84,1-3.46,2-5.12,2.9-2.19,1.19-4.41,2.32-6.62,3.49-1.53.81-2.82,2.17-2,3.76a4.86,4.86,0,0,0,3.53,2c4.09.33,7.65-1.47,10.78-3.87,2.55-1.95,4.76-4.36,7.19-6.49a2.82,2.82,0,0,1,2-.82c11.66,3,23.56,4,35.52,4.66,3.31.18,3.81.87,3.83,4.18a7.44,7.44,0,0,1,0,1.25c-.26,1.6,0,4.14-.94,4.64a7.16,7.16,0,0,1-8.89-1.75c-4.53-5.53-10.3-7.63-17.32-6.07a4,4,0,0,0-1.62.57A27.87,27.87,0,0,0,89.57,129a11.57,11.57,0,0,0,2.94,1.85c2.46.69,5,1,7.52,1.64.89.25,1.6,1.2,2.39,1.82l-.43.81c-4.19-.73-8.39-1.41-12.57-2.19-2.53-.46-5-1.28-7.56-1.52-1.3-.13-3.34.26-3.89,1.14-1,1.57.4,3.19,1.91,3.71,4.05,1.39,8.21,2.46,12.33,3.65.65.18,1.32.29,2,.43,0,.29.09.58.14.87a9.09,9.09,0,0,1-2.4.89c-3.15.24-6.31.28-9.45.51a8.17,8.17,0,0,0-2.29.91c.46.81.76,2.13,1.42,2.34,2.73.86,5.56,1.92,8.37,1.94A32.93,32.93,0,0,0,108.3,143a19.06,19.06,0,0,1,8-3c2.9-.37,4.3.7,4.27,3.62q-.22,17.73-.52,35.47c-.12,6.65-.36,13.31-.5,20-.19,8.58-.29,17.15-.5,25.72-.1,4.38-1.48,5.7-5.85,5.3A107.45,107.45,0,0,1,86.82,224a116.71,116.71,0,0,1-45.63-29.18c-15.87-16.47-26-35.87-29.28-58.59-3.27-22.39-.05-43.85,10.53-63.88C38.09,42.77,62.58,23.89,94.55,14.51a118,118,0,0,1,40-4.47A120.44,120.44,0,0,1,195,29.67,113.58,113.58,0,0,1,232.12,69a101.35,101.35,0,0,1,12.49,36.59C247.84,129.21,243.87,151.51,232.21,172.31Z"/></g></g></svg>