<svg xmlns="http://www.w3.org/2000/svg" viewBox="0 0 1246.5 193.26"><defs><style>.cls-1{fill:#1da0a3;}</style></defs><g id="Capa_2" data-name="Capa 2"><g id="Capa_1-2" data-name="Capa 1"><path class="cls-1" d="M590.22,107.18V156.9h-111v-3.61c1.48-.17,3-.33,4.47-.51,5.91-.74,8.3-3.22,8.71-9.16.2-2.78.34-5.57.34-8.36q0-46,0-92.08a86.35,86.35,0,0,0-.9-11.47,6.3,6.3,0,0,0-5.42-5.65c-3-.51-6.22-1.21-9.07-.59-7.63,1.66-10.92,5.94-11.54,14.13-.39,5.08-.62,10.18-.63,15.27q-.09,49.22,0,98.44v3.81c-4.53,0-8.83.1-13.12-.08-.84,0-1.73-1.1-2.42-1.84Q408.92,111.15,368.34,67a28,28,0,0,1-1.81-2.47l-.78.51v2.19c0,18.38-.06,36.76.08,55.13,0,5.57.47,11.15,1.06,16.69.66,6.06,3.81,10.38,9.9,12.13,2.76.79,5.56,1.44,8.45,2.18v3.46H347.66c-.56-2.26-.44-3.75,2.37-4.41,7.19-1.68,9.92-7.07,10.49-13.81.4-4.79.63-9.6.64-14.4q.09-41.43,0-82.85a52.72,52.72,0,0,0-.48-7.75c-.82-5.59-2.39-7.07-8.07-8.07-1.6-.28-3.21-.44-5-.68V21.33c.76,0,1.5-.12,2.24-.13,9.54,0,19.07.07,28.59-.05a6.33,6.33,0,0,1,5.24,2.15q37.05,39.11,74.22,78.08c.63.66,1.32,1.26,2.37,2.26.06-1.2.12-1.83.12-2.46-.12-18.19-.22-36.37-.4-54.55a54.29,54.29,0,0,0-.68-7.75c-1.19-7.59-5.21-11.3-14-13.12l-4.28-.84V21.4H586.66q-.49,22.71-1,45.63c-3.7.63-3.68.63-4.44-3.19-1.5-7.55-3.32-15-7.3-21.72-6.39-10.77-15.66-16.66-28.44-16.47-1.93,0-3.86,0-5.78.1-5.18.3-7.2,2.33-7.53,7.56-.12,1.92-.14,3.84-.14,5.77q0,22.23,0,44.45v2.93c11.3,1.31,23.51-7.61,28.27-24.88h4.25v54.18c-3.56.82-3.48.8-4.59-3.11-3-10.68-9.11-18.58-20.41-21.34a54.5,54.5,0,0,0-7.25-.8,23,23,0,0,0-.27,2.29c0,16.36-.06,32.71.05,49.07.06,9,1.66,10.6,10.66,10.72a61.72,61.72,0,0,0,13.18-.9c7.09-1.45,12.39-5.93,16.73-11.58,7.22-9.4,10.55-20.36,12.78-31.77,0-.27.14-.54.26-1,.62-.06,1.27-.16,1.92-.19S589,107.18,590.22,107.18Z"/><path class="cls-1" d="M860.48,152.63a25.4,25.4,0,0,1-11.63,9.65,94,94,0,0,1-15.92,4.87c-21.48,4.07-43.16,2.14-64.78,1.31,6.12-2.25,12.18-4.66,18.37-6.68a59.42,59.42,0,0,1,9.86-2c4-.57,8.08-.56,12-1.33,24.16-4.68,41.91-17.66,51.58-40.63,5.91-14,6.92-28.69,4.57-43.59-3.54-22.59-15.19-39.41-36.3-48.91-16-7.19-32.9-8.67-50-5.79-24.71,4.14-43,17.19-52.85,40.6-7.65,18.25-7.81,37.09-1.8,55.84C729,132.77,740,144.84,756,152.38c8,3.77,16.4,5.83,25.2,7.16-6.33,2.73-12.68,5.34-19.17,7.58a9.24,9.24,0,0,1-5.47-.24c-5.56-1.81-11.13-3.07-17-1.92-3.59.7-5.77,2.69-5.88,5.41s1.78,4.76,5.55,5.59a22.27,22.27,0,0,0,15.39-2.35c4-2.12,7.35-1.52,11.13.09,11,4.7,22.1,9.4,33.26,13.82,12,4.75,24.4,7,37.3,5,7.58-1.15,14.67-3.58,19.67-9.81,7.37-9.19,9.08-20.24,10.21-31.32C863.59,149.83,862,150.38,860.48,152.63Zm-80.85-1.77c-7.08-6.15-11-14.26-13.83-22.93-4-12-5.44-23.37-5.42-38.92,0-15.28,1.56-30.31,7.07-44.71,2.33-6.06,5.43-11.68,10.14-16.27,7.7-7.51,18.22-8.22,26.75-1.67,8.06,6.2,12.13,15,15.2,24.31,5.35,16.26,6,33,5,49.91-.74,12.32-2.57,24.53-7.92,35.79a53.71,53.71,0,0,1-9,13.58C799.75,158.32,788.3,158.4,779.63,150.86Z"/><path class="cls-1" d="M237.92,136.21q0-46.91,0-93.8a4.68,4.68,0,0,0-.7-2.68c-1.44,3.57-2.93,7.12-4.33,10.7q-20.35,51.75-40.73,103.47c-.44,1.12-1.72,1.91-2.61,2.86-.86-.86-2.08-1.56-2.54-2.6Q162.53,99,138.18,43.73q-2-4.54-4-9.1l-.77.19v2.57c0,28.09,0,56.19.07,84.28a136.14,136.14,0,0,0,.83,15c1.2,10.62,5.09,14.57,15.81,16.15,2.52.37,3.45,1.23,2.59,3.78H115.73c-.52-2-.42-3.18,2.13-3.91,7.21-2.06,10.4-6.75,10.88-15.47.31-5.67.53-11.34.55-17q.08-38.08,0-76.19c0-2.88-.1-5.77-.38-8.64-.73-7.58-2.81-9.56-10.49-10.25-3-.27-3-.27-2.67-3.77,3.11.14,6.25.42,9.39.4,14.16-.1,28.32-.21,42.47-.52,2.8-.07,4.14.66,5.32,3.32,11,25,22.2,49.84,33.35,74.74.42.93.94,1.82,1.75,3.37,1.87-4.7,3.53-8.82,5.15-12.95Q226,56.8,238.86,23.93c.53-1.34,1.1-2.19,2.86-2.2,15.79-.09,31.59-.31,47.38-.48a10.71,10.71,0,0,1,1.28.14v3.3c-2.09.32-4.17.58-6.23,1-3.79.72-5.84,2.61-6.41,6.42a70.32,70.32,0,0,0-.82,10q-.09,46.9,0,93.8a64.36,64.36,0,0,0,.63,9.2c.72,5.07,3,7.13,8.15,7.75,1.51.18,3,.38,4.71.6.05,1.07.1,2,.16,3.12h-68v-3.11l5.67-.64c6.16-.73,8.88-3.55,9.32-9.71C237.69,140.82,237.91,138.52,237.92,136.21Z"/><path class="cls-1" d="M1106.76,107.3v49.6H995.46v-3.53c2.37-.37,4.64-.7,6.9-1.09,3.76-.63,5.64-3.11,6.17-6.66a53.49,53.49,0,0,0,.61-7.47q.06-48.63,0-97.27a54.24,54.24,0,0,0-.46-6.61c-.77-6.13-2.25-7.64-8.39-8.74-1.5-.27-3-.41-4.75-.63V21.41h107.54c-.33,15.16-.67,30.37-1,45.73h-3.51c-1.3-5.15-2.37-10.31-3.93-15.31-3.1-10-8.5-18.26-18.17-23.15-7-3.54-14.51-3.51-22-2.66-3.7.42-4.9,2-5.51,5.62a27.1,27.1,0,0,0-.49,4.29q0,24.39,0,48.78c0,.55.07,1.11.13,1.81a21.39,21.39,0,0,0,16.55-5.5,34.88,34.88,0,0,0,10.68-16.47c1.08-3.47,1.08-3.47,5.27-2.81v54c-3,1.05-3.53.74-4.44-2.54-3-10.89-9-19.06-20.61-21.88a61,61,0,0,0-7.59-.83v3.38q0,23.53,0,47c0,9.85,1.74,11.2,11.52,11.87,14.85,1,25.52-5.13,32.58-17.82a92.43,92.43,0,0,0,6.15-13.92c1.56-4.41,2.44-9.06,3.65-13.72Z"/><path class="cls-1" d="M1246.5,21.42v3.5a14.5,14.5,0,0,1-1.82.66c-6.89,1.62-10.09,6.37-10.67,13-.51,5.84-.84,11.71-.85,17.56q-.12,48.5,0,97v4c-4.48,0-8.59.09-12.7-.07a4.45,4.45,0,0,1-2.52-1.6q-25.29-27.35-50.5-54.76-15.56-16.89-31.11-33.77c-.57-.63-1-1.34-1.76-2.24-.43.74-.51.81-.51.89.18,23.75.15,47.51.67,71.25.21,9.73,4.93,14.07,15.76,15.84,2.91.48,3.57,1.56,2.8,4.21H1115.7v-3.39a2.14,2.14,0,0,1,.48-.37c9.28-2.89,12.39-6.59,12.6-16.45.39-18,.49-36,.6-53.95.09-13.57,0-27.13,0-40.7a80.29,80.29,0,0,0-.56-8.62c-.53-4.69-2.62-6.84-7.22-7.66-1.88-.33-3.78-.54-5.85-.84V21.29h4.2c8.86,0,17.71,0,26.57-.13a6.3,6.3,0,0,1,5.24,2.13q37.15,39.2,74.44,78.24c.51.54,1.08,1,1.94,1.84.1-1.2.23-2,.23-2.81,0-17.5,0-35-.14-52.52a59.59,59.59,0,0,0-.67-8.33c-1.28-8.42-5.14-12.16-14.16-14-1.32-.26-2.64-.5-4.13-.78V21.42Z"/><path class="cls-1" d="M722.51,25.78c-7,2-10.2,6.39-10.49,14.72-.4,11.24-.47,22.49-.64,33.74-.21,13.36,0,26.75-.73,40.08a84.77,84.77,0,0,1-4.12,20.8c-4.08,12.62-13.62,19.78-26.23,22.67a82.81,82.81,0,0,1-41.68-1c-16.72-4.75-25.7-16.2-27.65-33.13a234.55,234.55,0,0,1-1.28-24.45c-.18-18.85,0-37.7-.08-56.56,0-3.07-.21-6.15-.5-9.21-.47-4.83-2.55-7-7.38-7.79-1.8-.3-3.61-.51-5.63-.79V21.42h68.32v3.44c-2.24.28-4.51.53-6.77.86-5.21.79-7.49,3-8.14,8.16a62.38,62.38,0,0,0-.53,7.47c0,26.26-.17,52.53.08,78.78a77.85,77.85,0,0,0,2.38,18.49c2.34,9.1,9,13.9,18.43,14.14a56,56,0,0,0,12.61-.86c10.17-2.08,16.25-8.86,19.76-18.32,3.34-9,4.45-18.28,4.53-27.72.16-17,.12-34,0-51.08,0-5.08-.54-10.17-1-15.24-.65-7.22-4.76-11.5-11.71-13.18-2.14-.51-4.31-.95-6.74-1.49V21.42h37.6C725.67,23.63,725.32,25,722.51,25.78Z"/><path class="cls-1" d="M993.34,21.42v3.51c-.68.24-1.38.54-2.1.72-6.57,1.67-9.8,6.21-10.41,12.63-.56,5.83-.87,11.7-.93,17.55-.19,18.19.11,36.38-.44,54.55A101.19,101.19,0,0,1,976,132.2c-3.36,13.09-12.09,21.51-25.08,25a80.4,80.4,0,0,1-45.26-.86c-15.3-4.72-23.76-15.45-25.94-31a174,174,0,0,1-1.62-22.12c-.22-19.81-.08-39.63-.1-59.45,0-2.41,0-4.81-.1-7.22-.24-8.13-2.78-10.75-11-11.34L864.63,25v-3.6H933v3.42c-2.1.27-4.17.5-6.22.81-6.3.95-8.64,3.52-9,9.9-.12,1.82-.23,3.65-.23,5.48.06,28.67.06,57.33.32,86A45.61,45.61,0,0,0,920,138.86c2.33,8.31,8.15,13,16.63,13.74a53.38,53.38,0,0,0,14.33-.71c9.83-1.88,15.92-8.36,19.48-17.46,3.78-9.65,4.81-19.74,4.81-30q0-28.73-.23-57.44a60.84,60.84,0,0,0-.87-8.59c-.95-6.28-4.63-10.17-10.74-11.79-2.4-.63-4.83-1.15-7.42-1.77V21.42Z"/><path class="cls-1" d="M110.8,105.79V156.6H.07v-3.08c1.61-.22,3.2-.45,4.8-.65,5.47-.69,7.83-3,8.34-8.53.27-3,.49-6,.49-8.92q0-46.45,0-92.91c0-2.69-.19-5.38-.45-8.06-.6-6.1-2.4-8-8.42-9.11-1.5-.27-3-.37-4.83-.58V21.51H67.9c1,2.92.74,3.31-2.39,3.56l-1.44.09c-8.27.77-10.72,3.28-11.21,11.6-.16,2.78-.27,5.57-.27,8.36q0,47,0,94.07a70.86,70.86,0,0,0,.69,8.6,4.91,4.91,0,0,0,4.5,4.56c9.48,1.46,18.34.66,25.91-6.22a72.71,72.71,0,0,0,22-37.08C106.73,105.15,106.66,105.13,110.8,105.79Z"/><rect class="cls-1" x="995.8" width="107.49" height="8.24"/></g></g></svg>