<svg xmlns="http://www.w3.org/2000/svg" viewBox="0 0 708.5 711.18"><defs><style>.cls-1{fill:#1da0a3;}</style></defs><g id="Capa_2" data-name="Capa 2"><g id="Capa_1-2" data-name="Capa 1"><path class="cls-1" d="M333.24,469.27q0,10.56-.07,21.13c0,1.23-.11,2.46-.19,4.08-1.57.09-2.9.26-4.22.22-8.67-.26-17.34-.79-26-.81-8.42,0-16.84.3-25.24.76a26.55,26.55,0,0,0-18.17,8c-15.84,16-31.91,31.79-47.85,47.7a30.18,30.18,0,0,0-2.68,3.68l-21.42-16.09c2-2.45,3.52-4.58,5.31-6.45,6.53-6.82,13.06-13.63,19.76-20.28,9.73-9.66,19.58-19.2,29.42-28.75,2.16-2.1,4.45-4.08,6.71-6.08a30,30,0,0,1,20.77-7.6c8,0,16.09.26,24.14.4,2.9.05,5.79.13,8.68.15,5,0,5.07,0,5.07-5q0-29.25,0-58.49c0-1.47-.22-2.94-.34-4.46a23.75,23.75,0,0,0-2.53-.36c-13.21-.19-26.41-.44-39.62-.49-5.28,0-10.57.27-15.84.6-7.4.47-11.36,4.07-12.25,11.35a120.34,120.34,0,0,0-.62,12c-.12,5.28.08,10.57-.16,15.84a20.41,20.41,0,0,1-6.47,14.37c-9.43,9.07-18.61,18.41-27.9,27.61q-13.66,13.55-27.38,27c-2,1.92-4.06,3.69-6.38,5.79l-16.4-17.4a22,22,0,0,1,1.72-2.46c4.86-5.27,9.61-10.64,14.65-15.72,7.88-7.95,16-15.68,23.95-23.55,3.84-3.8,7.71-7.59,11.31-11.62a26.31,26.31,0,0,0,7.08-18.92c-.32-10.55,0-21.11-.18-31.67-.1-5-.68-10-.1-15,.14-1.23.16-2.47.23-3.6,2.87-.93,117.52-1.2,122.45-.27.26,4.7.74,9.55.75,14.4Q333.31,429.27,333.24,469.27Z"/><path class="cls-1" d="M331.28,332.15H211.46a8,8,0,0,1-.64-1.82c-.9-12.3-1-24.6-.75-36.93.12-6.39-.47-12.8-.95-19.18a14,14,0,0,0-4.3-8.94c-15.69-16.15-31.26-32.43-46.86-48.67-2.25-2.34-4.46-4.73-7-7.43l16.68-17.63c1.34,1.12,2.44,1.93,3.41,2.88,4.33,4.21,8.6,8.48,12.92,12.7l39.08,38.3c1.71,1.67,3.34,3.42,5.11,5,5.89,5.35,8.29,12.18,8.39,19.9.07,5.4-.25,10.81-.27,16.22a73.54,73.54,0,0,0,.45,9.39,9,9,0,0,0,6.87,8.12,79.12,79.12,0,0,0,8.13,1.49,12.18,12.18,0,0,0,2.26.06c14.85-.49,29.66.38,44.47,1.34a21.5,21.5,0,0,0,4.88-.13c2.66-.44,3.61-1.63,3.87-4.34.09-1,.05-2,.05-3V242.13c0-4.86-.06-4.91-4.79-4.91-11.7,0-23.41-.12-35.1,0a25.18,25.18,0,0,1-15.28-4.49,81.69,81.69,0,0,1-11.11-9c-17.28-17.41-34.39-35-51.55-52.52-.51-.53-.94-1.15-1.75-2.13,5.81-6.46,13.61-10.21,19.81-15.68.55.19.84.21,1,.37,6.86,6.65,13.78,13.25,20.52,20,9.14,9.16,18.32,18.29,27.15,27.74,7.31,7.82,16.3,11.06,26.65,11.14,14.6.12,29.2,0,43.79.05H331C331.92,215.67,332.19,327,331.28,332.15Z"/><path class="cls-1" d="M556.79,497.16c-2.38,4.07-14.06,16.09-17.11,17.65-.85-.78-1.79-1.59-2.67-2.45-13.39-13.13-26.74-26.3-40.19-39.36-5-4.9-10.24-9.62-15.49-14.29-5.84-5.2-9.35-11.5-9.46-19.4-.08-5.4.39-10.81.27-16.21a53.17,53.17,0,0,0-1.25-11.91c-1.53-6-5.41-9.84-11.95-10.3-2.76-.19-5.51-.51-8.27-.49-15,.14-29.94.36-44.9.55-1.25,0-2.49,0-3.43,0l-.57.59c-.08.09-.22.19-.23.29a27.22,27.22,0,0,0-.27,3q0,31.32.08,62.65a6.61,6.61,0,0,0,.46,1.44,40.25,40.25,0,0,0,4.25.37c9.06-.13,18.11-.48,27.17-.44A95.76,95.76,0,0,1,446,470a25.63,25.63,0,0,1,12.85,6c3.19,2.64,6.31,5.4,9.25,8.32q22.85,22.8,45.58,45.71c2.38,2.4,4.59,5,7.19,7.77-7.05,5.55-14.22,10.32-21.13,15.34-.56-.25-1-.31-1.21-.56-10.27-11.61-21.74-22-33-32.61a152.72,152.72,0,0,1-13.28-13.89c-5.81-7.05-13.09-10.67-22.05-11.54-12.43-1.2-24.86-.86-37.3-.13-4.77.28-9.56.19-14.34.32-1.92,0-2.77-.85-2.77-2.71,0-1.26,0-2.52,0-3.78q0-43.59,0-87.19c0-6-.26-12.07-.36-18.11-.13-7.83-.11-7.83,7.57-7.83h58.53c11.45,0,22.91,0,34.36-.06,4,0,8-.41,12.06-.49a33.27,33.27,0,0,1,6,.41c2.9.47,3.84,1.56,4,4.54.12,2.26,0,4.53,0,6.79-.22,11.7-.53,23.39-.62,35.09a51.47,51.47,0,0,0,1,9.73,27.64,27.64,0,0,0,7.51,14.53c5.18,5.32,10.32,10.67,15.59,15.91,9.45,9.4,19,18.71,28.48,28.11C552.18,492,554.4,494.6,556.79,497.16Z"/><path class="cls-1" d="M557.19,209.81c-1.31,1.39-2.22,2.41-3.18,3.37q-16.07,16-32.12,31.94c-6,6-11.8,12-17.82,17.94a19.33,19.33,0,0,0-6.14,14.13q-.21,25.08-.21,50.16c0,4-.67,5-4.62,5H379.83c-3.74,0-4.09-.33-4.1-4.13,0-12.7,0-25.41,0-38.12V219.89c0-.76,0-1.51,0-2.27,0-4.85,0-4.86,4.76-4.87,14,0,27.94.06,41.9,0a70.79,70.79,0,0,0,10.89-.9,28.5,28.5,0,0,0,16.07-8.44q23-23.43,46.18-46.7c1.14-1.15,2.33-2.26,3.68-3.56,7.1,5.08,14,10,21.23,15.19-.82,1-1.45,1.86-2.21,2.61q-30.39,30.47-60.81,60.9c-3.89,3.89-8.84,5.27-14.09,5.33-12.34.15-24.67.06-37,.09-1.48,0-2.95.16-4.3.25-.89,3-1.19,62.93-.37,68.85,1.25.05,2.59.18,3.93.16,17.48-.3,35-.82,52.45-.85,8.22,0,11.5-4.88,13-11.08a40.77,40.77,0,0,0,.87-9c.11-6.29-.11-12.58,0-18.86A20.5,20.5,0,0,1,478.5,252c18.77-18.42,37.38-37,56-55.52,1.61-1.59,3.27-3.11,5.2-4.95C546.86,196.46,551.15,203.8,557.19,209.81Z"/><path class="cls-1" d="M479.41,566.29a56.28,56.28,0,0,1-5,3.52c-4.3,2.35-8.68,4.55-13,6.82-2.84,1.49-2.85,1.52-5.22-.67-10.17-9.39-20.39-18.73-30.44-28.23a16.83,16.83,0,0,0-12.26-4.83c-3.47,0-6.94.11-10.38.17A5.85,5.85,0,0,0,405,549c6.93,6.81,7.4,15.46,6.75,24.22-.47,6.23-3.7,11.35-8.34,15.6-9,8.28-19.93,12-31.85,13a211.69,211.69,0,0,1-23.35.68c-10.69-.33-21.33-1.58-31.31-5.81a47.62,47.62,0,0,1-9.86-5.45,28.85,28.85,0,0,1-4.51-42.09c1.39-1.63,3-3.09,1.86-5.92-5.27-.17-10.62-.9-15.93.48-3.18.83-5.42,3.08-7.71,5.24-6.95,6.57-13.84,13.19-20.88,19.66-2.68,2.46-5.68,4.58-8.56,6.81a4.5,4.5,0,0,1-5.5.44c-5.61-3-11.37-5.84-17.5-8.95,1.36-1.61,2.38-3,3.58-4.23,13.16-13.35,26.39-26.62,39.48-40a19.42,19.42,0,0,1,14.11-6.2c15.22-.17,30.45-.06,45.67,0a4.39,4.39,0,0,1,.93.26c.17.44.61,1,.59,1.55-.22,6.27-.39,12.55-.84,18.8a15.36,15.36,0,0,1-4.46,9.36,45.17,45.17,0,0,0-3.45,4,13.4,13.4,0,0,0,.77,17.33,23,23,0,0,0,8.63,6c9.3,3.86,19,4.53,28.88,3.48a56.19,56.19,0,0,0,9.2-1.94,34.29,34.29,0,0,0,6.28-2.51c11-5.59,10-15.77,5.7-23a23.32,23.32,0,0,0-2.81-3.55,17.48,17.48,0,0,1-4.73-12c0-4.91-.12-9.81-.05-14.72,0-2.73.37-3.06,3.1-3.06q21,0,41.9.09a50.22,50.22,0,0,1,7.1.86,11.67,11.67,0,0,1,6.54,3.5c8.5,8.4,17.08,16.72,25.53,25.17,5.51,5.52,10.85,11.2,16.26,16.82C477.13,563.69,478,564.74,479.41,566.29Z"/><path class="cls-1" d="M603.21,360.75a120,120,0,0,1-4,24.49A41.08,41.08,0,0,1,584.51,407,22.28,22.28,0,0,1,572,411.58c-7.51.49-14.54-.75-20.72-5.31-1.3-1-2.34-2.29-3.68-3.19a4.45,4.45,0,0,0-3-.78c-.55.12-1.13,1.6-1.12,2.47q.08,6.39.51,12.77a10.29,10.29,0,0,0,3.08,6.32q12,13,24,26.13c2.53,2.77,5,5.64,7.49,8.52l-11,20.84c-1.08-.88-2-1.49-2.74-2.24-13.52-13.34-26.89-26.85-40.6-40a23.32,23.32,0,0,1-7.47-17.81q0-20.56,0-41.14c0-2.79.28-3,3-3.05,5.29,0,10.57,0,15.86.06a12.17,12.17,0,0,1,8.57,3.29,58.3,58.3,0,0,0,6.29,4.8c8.53,6.08,18.6,1.27,22.43-4.85a33.89,33.89,0,0,0,4.38-11.56,58.35,58.35,0,0,0-2.67-33,30,30,0,0,0-5-8.36c-4.75-5.62-11.74-6.49-18-2.56a33.09,33.09,0,0,0-4.39,3.55c-2.57,2.34-5.39,4.19-8.92,4.53-5.62.55-11.23,1.2-16.86,1.38-4,.13-4.92-1-4.92-5,0-12.57,0-25.15.18-37.73a31.36,31.36,0,0,1,11.45-24.46A436.63,436.63,0,0,0,562,232.44a71.24,71.24,0,0,1,5.39-4.68c3.26,6.07,6.26,11.57,9.18,17.1a5.5,5.5,0,0,1-.71,6.36c-1.25,1.57-2.6,3.06-3.95,4.55-8.05,8.83-16.06,17.71-24.2,26.46a15.11,15.11,0,0,0-4.33,10.89c0,3.61.11,7.21.17,10.77,2.29.66,3.72.32,5.22-1,13.19-12,32-10.15,42.74,4a53.13,53.13,0,0,1,9.12,20.53A111.35,111.35,0,0,1,603.21,360.75Z"/><path class="cls-1" d="M479.58,140.09a23.51,23.51,0,0,1-1.81,2.38c-5.59,5.62-11.29,11.13-16.8,16.82-6.91,7.14-13.88,14.23-20.44,21.68-5.54,6.3-12.18,9.42-20.5,9.39-13.59-.06-27.18,0-40.77,0-1,0-2-.11-3.11-.17a7.4,7.4,0,0,1-.65-2.16c.15-6.15.16-12.32.68-18.45.4-4.71,3.18-8.61,6.54-11.62,5.2-4.65,4.81-15.25-.24-20.24a22.86,22.86,0,0,0-7.7-5.22,53,53,0,0,0-13.13-3.06,68.32,68.32,0,0,0-24.3,2.08,26.65,26.65,0,0,0-11.54,6.11,13.93,13.93,0,0,0,0,21,14.33,14.33,0,0,1,4.45,6.42c2.4,8.05,2.59,16.31,2.31,25a31.93,31.93,0,0,1-3.4.35c-13.46,0-26.93,0-40.39,0a52,52,0,0,1-8.62-.85,16.5,16.5,0,0,1-9-5.17q-10.26-10.54-20.6-21c-6.63-6.72-13.31-13.38-19.95-20.09-.84-.85-1.54-1.83-2.51-3l18.6-10a3.51,3.51,0,0,1,4.21.53c1.73,1.45,3.52,2.85,5.19,4.37,8.81,8.08,17.71,16.06,26.34,24.33,3.33,3.2,6.79,4.92,11.43,4.42,2.74-.3,5.54,0,8.3-.17s3.53-1.64,2.21-4a11.7,11.7,0,0,0-1.46-1.71c-10.12-12-10.62-27.21.82-38.73,7.09-7.14,15.94-10.76,25.59-12.8,11.79-2.49,23.73-2.84,35.67-2.14,8.65.51,17.26,2,25.28,5.5a57.62,57.62,0,0,1,10.17,5.69c14.32,10.14,14.85,31.24,4.69,42.87-1.9,2.19-1.88,2.21-2.14,4.94,3.52.42,7,1.28,10.63,1.11,5.86-.27,10.31-3.09,14.48-7,9.32-8.81,18.94-17.31,28.35-26a4.23,4.23,0,0,1,5.44-.81c1.11.58,2.3,1,3.39,1.64C470,134.7,474.65,137.34,479.58,140.09Z"/><path class="cls-1" d="M191.33,418.68a22.86,22.86,0,0,1-7.2,17.95c-4.25,4.1-8.52,8.2-12.71,12.37-8.22,8.15-16.37,16.36-24.57,24.52-1.95,1.94-4,3.76-6.28,5.88l-1.38-2.48c-2.43-4.39-4.81-8.82-7.32-13.17-2.25-3.91-2.35-5.32.41-8.89,1.85-2.38,3.92-4.59,6-6.78,7.26-7.68,14.51-15.37,21.86-23a14.82,14.82,0,0,0,4.47-10.85c0-3.85-.44-7.69-.66-11.21-2-1.11-2.91.06-3.93.64-2.84,1.63-5.56,3.47-8.48,4.92-14.62,7.23-30,1.8-37.78-11.52-4.47-7.62-6.77-16-7.89-24.6A127.83,127.83,0,0,1,108,325.69c1.85-7.65,4.73-14.75,9.83-21,9.82-12,26.58-11.57,36.73-5.68a18.7,18.7,0,0,1,4.39,4c1,1.17,2.16,2,3.53,1.34a4.16,4.16,0,0,0,1.7-2.6c1.6-7.22.94-13.94-4.39-19.7-7.44-8-14.76-16.16-22.11-24.27-2.28-2.51-4.48-5.1-6.71-7.65a2.74,2.74,0,0,1-.44-3.42c3.14-6.15,6.2-12.34,9.5-19a38.77,38.77,0,0,1,4.37,3.19c8.37,8.17,16.64,16.43,25,24.61,4,4,8.13,7.87,12.32,11.66a29.34,29.34,0,0,1,9.54,19.52,107.32,107.32,0,0,1,0,13.18c-.2,9-.48,18.09-.71,27.13,0,1.5,0,3,0,4.35-.62.36-.93.69-1.25.71a71.9,71.9,0,0,1-23.14-2.29,14.93,14.93,0,0,1-7.24-4.56c-4.5-5-11.06-6.05-17-2.85a17,17,0,0,0-7.67,8.54,55.11,55.11,0,0,0-4.42,27.61,109.6,109.6,0,0,0,1.91,11.51,28.89,28.89,0,0,0,1.95,5.68c4.65,10.51,15.63,13.37,25,6.53a45.13,45.13,0,0,0,3.7-3.22,14.53,14.53,0,0,1,10.27-4q8.11,0,16.23.05a7.17,7.17,0,0,1,1.43.39,18.76,18.76,0,0,1,.28,2C190.8,391.27,191,405,191.33,418.68Z"/><path class="cls-1" d="M707.69,350.2l-36.8-9.07a23,23,0,0,1,3.65-2.47c2.42-1,4.94-1.84,7.44-2.64,6.46-2.07,13-3.92,19.38-6.15,5.81-2,5.65-2.18,5-8.25-.38-3.49-.39-7-.52-10.53-.06-1.52-.68-2.37-2.28-2.31s-1.92,1-1.91,2.26c0,1.6,0,3.21,0,4.94a33,33,0,0,1-3.65.92c-4.24.52-8.47,1.16-12.73,1.37-5.4.27-10.82.29-16.22.19-3.43-.07-4.73-1.57-4.88-4.87,0-.38.18-.86,0-1.11-.51-.77-1.12-2-1.77-2a2.7,2.7,0,0,0-2.13,1.59,14.85,14.85,0,0,0-.09,4.47c.32,4.12.73,8.23,1.09,12.35a10.62,10.62,0,0,0,.25,3,2.56,2.56,0,0,0,1.9,1.32,2.51,2.51,0,0,0,1.87-1.33,12,12,0,0,0,.31-3,4.44,4.44,0,0,1,3.34-4.11,17.07,17.07,0,0,1,4-.73c6.79-.08,13.58-.06,20.38,0a12.47,12.47,0,0,1,2.61.77c-2.07,1-3.36,1.75-4.74,2.28-3.16,1.22-6.35,2.4-9.56,3.49q-8.75,2.94-17.54,5.74a3.7,3.7,0,0,0-2.95,4.16c.12,2.7.23,3.24,2.93,4.08,4.31,1.34,8.68,2.51,13,3.63,5.47,1.4,11,2.61,16.45,4.05,1.26.33,2.93.41,3.61,2.29-.74.13-1.22.27-1.7.3-5.52.34-11,.74-16.56,1a57.67,57.67,0,0,1-8.62-.22c-3.71-.4-3.73-.6-3.91-4.47,0-.25,0-.5,0-.75-.16-1.49-1.12-2.43-2.48-2.23-.64.09-1.51,1.31-1.59,2.08a31,31,0,0,0,0,6,97.08,97.08,0,0,1-2.56,33.27c-.93,3.59-.61,4.08,3.56,5.13.25-1.75.47-3.46.75-5.17.44-2.67,1.77-3.58,4.23-2.47a40.22,40.22,0,0,1,6.45,3.87,2.82,2.82,0,0,1,.93,2.25c-.5,4.11-1.1,8.2-1.83,12.28-.13.7-1,1.75-1.56,1.8-3.19.29-6.32,1.74-9.5.83-1.74-2.75.1-6.28-2.34-8.71-2.11.68-2.3,2.42-2.57,3.95-.43,2.47-.67,5-.92,7.48a88.7,88.7,0,0,1-5.86,25.23,53.29,53.29,0,0,0-2,6.46,5.85,5.85,0,0,0-.2,2.95,2.53,2.53,0,0,0,1.76,1.5,2.57,2.57,0,0,0,2-1.13,7.51,7.51,0,0,0,.78-2.89c.25-1.9,1.3-2.74,3.11-2.27,4,1,8,2.22,11.92,3.39a2.54,2.54,0,0,1,1.95,3.48c-1.8,5.7-3.68,11.39-5.61,17.33l-15.39-5.17c.27-2,.45-3.61.72-5.19.39-2.28-.16-3.57-1.82-3.82-2.12-.32-2.42,1.31-2.83,2.78-.2.73-.31,1.48-.55,2.19-1.27,3.8-2.54,7.59-3.86,11.37-.29.83-.79,1.58-1.14,2.38-.72,1.68.36,2.66,1.55,3.41,1.45.92,2.4-.16,3.06-1.24a9.77,9.77,0,0,0,.71-2.48c.71-2.63,1.31-3.21,4-2.4Q664,471,678.69,475.82c2.77.91,2.9,1.65,2,4.62-.39,1.25-.74,2.52-1.11,3.79,3.76,1,4.19.94,4.92-1.25,1.72-5.11,3.39-10.24,5-15.39.47-1.54.72-3.23-.87-4.5-4.58.08-2.89,5.5-6.1,7l-12.8-3.51c2-6.62,3.93-12.94,5.92-19.45,4.71-.54,8.69,1.73,13.29,3.26-.3,2.26-.69,4.34-.78,6.42a2.63,2.63,0,0,0,1.08,2.09,2.88,2.88,0,0,0,2.37-.47,4.64,4.64,0,0,0,1.37-2.19c1.72-5,3.47-10,5-15,.9-3,0-3.75-3.72-3.74-.29,1.11-.65,2.29-.91,3.49-.53,2.48-.66,2.65-3.24,2.29a112.36,112.36,0,0,1-30.21-9c-2.91-1.3-3.06-1.71-2.39-4.63.75-3.3,1.7-6.56,2.45-9.87.7-3.1,2.64-4.6,5.69-5.18,6-1.16,12-2.46,18.06-3.75,5.76-1.24,11.52-2.5,17.26-3.88a5,5,0,0,0,3-1.78,5.16,5.16,0,0,0-2.33-7c-3.08-1.69-6.19-3.35-9.28-5-7.64-4.11-15.25-8.28-22.94-12.29-2.16-1.13-3.24-2.51-3-5,.23-2.88,0-5.8.3-8.67.45-4.47,1.26-5.09,5.68-5.19,1.13,0,2.26-.09,3.39-.13,7.92-.23,15.84-.51,23.75-.64,3.07-.05,3.69.66,4.28,3.61a10.79,10.79,0,0,0,.8,3.22,2.86,2.86,0,0,0,2.17,1c.38,0,1-1,1.13-1.65C709,361.77,708.43,356.19,707.69,350.2Zm-28.31,47.17c.32-2.13,1.46-3.11,3.33-2.64a32.33,32.33,0,0,1,12.73,6.85c.12.11,0,.47.08,1.2-5.68.42-11,2.6-16.8,2C679,402.06,679,399.69,679.38,397.37Z"/><path class="cls-1" d="M139.91,113.46a29.48,29.48,0,0,0-14.24-13,19.08,19.08,0,0,0-19.66,2,41.41,41.41,0,0,0-5,4.56c-4.29,4.23-8.46,8.58-12.81,12.75a3.94,3.94,0,0,0-1,4.61c3.8,1.62,5-2.54,7.84-3.24a28.36,28.36,0,0,1,2.22,1.78Q107.66,133,118,143.21c2.52,2.49,2.6,3.12.32,6s-4.63,5.3-6.79,8.08a4,4,0,0,1-4.59,1.59c-4.25-1.09-8.54-2-12.78-3.19Q82,152.45,69.86,149a4.23,4.23,0,0,0-5,1.46c-1.59,1.8-1.32,3.39-.27,5.11,2.09,3.43,4.16,6.88,6.4,10.21,5,7.51,10.2,15,15.29,22.44a24.42,24.42,0,0,1,1.32,2.52c-1.1,2-3.24,3.37-2,5.86,3,.59,3.6.49,4.88-1.92a42.61,42.61,0,0,1,7.17-10.1A4.79,4.79,0,0,0,99,179.16a3,3,0,0,0-4,1.17,15.3,15.3,0,0,1-1.08,1.55c-1.66,2-2.57,2.06-4.23.12-1.46-1.71-2.64-3.66-3.93-5.51a2.67,2.67,0,0,1,.15-3.46c2.26-3,4.43-6.11,6.78-9.06a3.27,3.27,0,0,1,2.46-1.28c3.24.6,6.43,1.51,10,2.39L100.9,173c2.23,1.41,3.69,1.05,5-.27a14.11,14.11,0,0,0,1.6-2.09c7.37-11.19,16.27-21.07,25.88-30.36a39.28,39.28,0,0,0,6.26-7.49C143.45,126.53,143.48,119.91,139.91,113.46ZM80,168.68c-2-4.12-6-7-7.67-12.29,5.64.34,10.35,2.1,15.22,4.07C86.89,165.76,85.11,167.69,80,168.68Zm55.7-37.9a18.68,18.68,0,0,1-7.7,8c-2,1.09-3.8,1.14-5.48-.52-.18-.18-.42-.29-.6-.47q-8.84-8.43-17.67-16.89a14,14,0,0,1-1.26-1.4c-2.38-3-2.41-3.56-.09-6.5,3.27-4.14,7.11-7.44,12.59-8.2.5-.07,1-.17,1.48-.25l.18-.42c2.67,1,5.56,1.6,8,3,5.74,3.38,9.35,8.61,11.47,14.88A10.7,10.7,0,0,1,135.65,130.78Z"/><path class="cls-1" d="M515.64,69.88c-2.85.65-2.85.65-3.88,2.85-.53,1.14-1,2.32-1.59,3.42-2.13,3.88-4.3,4.8-8.38,3.13-3.25-1.33-6.38-3-9.48-4.61-2.18-1.16-2.51-1.88-1.67-4.3a57.27,57.27,0,0,1,3.16-7.24C497.16,56.52,500.63,50,504,43.38c1.46-2.84,2.25-3.12,5.33-1.71,2.56,1.18,4.55,1.09,5.06-.2s-.58-2.91-2.83-4c-4.65-2.19-9.33-4.31-14.07-6.3-1.42-.6-3.1-1.13-4.63.2,0,2.11,1.53,2.75,3,3.41,2.58,1.14,3,1.58,2.32,4.17a45,45,0,0,1-2.89,8.14c-2.82,5.88-5.88,11.66-8.86,17.47a13.05,13.05,0,0,1-1.17,1.93c-2.21,3-3.35,3.25-6.69,1.64-2.83-1.37-5.57-2.93-8.46-4.13-3.71-1.55-3.78-1.43-3.88-5.33-.3-11.06-.56-22.12-.9-33.18a24.62,24.62,0,0,0-.75-5.19,4.07,4.07,0,0,0-3.52-3,5.1,5.1,0,0,0-5.49,2.27c-6.87,9-13.89,17.88-20.86,26.79a29,29,0,0,1-2.68,3.16c-1.19,1.15-2.44,2-4.35,1.14-1.19-.55-2.72-.76-3.73.66.78,3.31,1,3.31,4,4,3.4.77,6.72,1.92,10.05,2.95,1.43.44,2.79,1.13,4.24,1.48s2.89.1,3.31-1.62-1-2.44-2.29-2.92A42.15,42.15,0,0,0,439,54.07c-.14-4.42,2.66-6.92,5.06-9.58a2,2,0,0,1,1.74-.31c4.65,1.43,9.28,3,13.87,4.42V59.71L454.26,59c-1.29-.17-2.89-.27-3.14,1.17a3.63,3.63,0,0,0,1.57,3A18.92,18.92,0,0,0,458.38,65a48.41,48.41,0,0,1,17.88,6.66c1.49.93,3.07,1.72,4.64,2.5,5.38,2.71,10.78,5.38,16.17,8.07,3,1.52,6,3.17,9.09,4.57,2.23,1,3.41.65,5-1.21A15.23,15.23,0,0,0,512.59,83c1.23-2.33,2.35-4.72,3.7-7C518.08,73,518.11,72.65,515.64,69.88ZM459.25,43,449,40.43c.68-3.2,7.63-13.5,10-15C460.19,27.65,460.43,37.83,459.25,43Z"/><path class="cls-1" d="M204.24,86.55c-1.9,1.55-3.65,1.32-5.5,0q-13.5-9.3-27-18.6c-1.19-.82-2.42-1.59-3.63-2.37l-.74.55a17.87,17.87,0,0,0,1.23,3.28c4.26,7,8.63,13.86,12.91,20.82,1.2,2,2.81,1.81,4.58,1.15,1.49-.55,2.94-1.18,4.4-1.77,1.5,3.41,1.17,4.16-1.5,5.62-4.06,2.23-8,4.63-12,7-.32.19-.6.45-.93.64-1.81,1.05-3.72.86-4.34-.41s.4-2.81,2.35-3.66c2.87-1.26,3-1.29,2-4.08a32.32,32.32,0,0,0-2.5-5.45c-3.07-5.34-6.22-10.63-9.39-15.91a31.12,31.12,0,0,0-3-4.35c-2.19-2.55-3.94-2.86-7-1.71a34,34,0,0,1-3.41.87c-.73-3.89-.66-4,1.8-5.23,3.12-1.62,6.27-3.2,9.25-5.05a4.07,4.07,0,0,1,5.13.12q10.89,7.79,21.91,15.39c2.24,1.54,4.61,2.88,7.1,4.42.38-3.11.33-3.3-3.46-9.52-1.83-3-3.73-6-5.64-8.93s-3.29-6-6.61-8.06c-.92.83-1.77,1.7-2.72,2.44-1.29,1-3.3,1-4.15.06s-.52-3.08,1-4.26a10.45,10.45,0,0,1,1.3-.75l12.27-7.34c1.05-.62,2.13-1.19,3.14-1.75,2.07,2.77,2.08,3.61.09,5.23-1.06.86-2.23,1.57-3.5,2.45a50,50,0,0,0,5.57,11.16c2.46,3.79,5.22,7.41,7.47,11.32A82.37,82.37,0,0,1,206,81.07C207.11,83.92,206.5,84.73,204.24,86.55Z"/><path class="cls-1" d="M87.35,514.85a2.38,2.38,0,0,1-3.19-1.22c-.65-1.46-1.16-3-1.88-4.84a33.85,33.85,0,0,0-4.09,1.41c-8.65,4.34-17.3,8.67-25.87,13.15-3,1.59-3,1.89-1.88,5.08.44,1.27.83,2.57,1.24,3.84-3.25,1.18-4.35.92-5.24-1.64A29.61,29.61,0,0,0,41.49,521c-1.15-1.39-.54-2.57.36-3.72,3.18-4.07,6.33-8.15,9.55-12.17,3.55-4.41,7.19-8.75,10.75-13.15A32.49,32.49,0,0,0,64,489.19c-2-1.15-3.56-.57-5,.15-6.51,3.27-12.95,6.65-19.43,10-1.68.86-1.85,2.24-1.37,3.83a28.48,28.48,0,0,1,1.26,3.93,2.48,2.48,0,0,1-1,2.12,3,3,0,0,1-2.64-.35,10.32,10.32,0,0,1-2-3.16c-1.89-3.82-3.7-7.69-5.59-11.51-1.13-2.28-1.2-2.37-.66-5.44a3.17,3.17,0,0,1,4.18,2.6c.57,2.43,2.21,2.59,4,2.17a23.72,23.72,0,0,0,5.3-1.88c5.38-2.73,10.62-5.74,16.06-8.35a118.55,118.55,0,0,1,11.19-4.39,4.5,4.5,0,0,1,5.19,1.21,4.4,4.4,0,0,1,.17,5.31,59.51,59.51,0,0,1-5.46,8.1c-3.86,4.64-8,9-12,13.58a67.37,67.37,0,0,0-4.15,5.37,26.62,26.62,0,0,0-1.69,3.73,30.49,30.49,0,0,0,4.35-1.27q9.3-4.57,18.54-9.3a16.6,16.6,0,0,0,2.49-1.7c2.53-1.95,2.55-2,1.31-5-.64-1.54-1.41-3,.17-4.77,2.33-.22,3.53.89,4.38,2.87,1.72,4,3.62,8,5.45,12a24.1,24.1,0,0,1,1.39,3.07C88.9,513.23,88.71,514.42,87.35,514.85Z"/><path class="cls-1" d="M431.75,9.92c-1.1,3.1-1.1,3.1-3.76,2.54-4-.87-4.68-.66-5.46,3.37-1.23,6.4-2.14,12.87-3.14,19.32-.54,3.47-.92,7-1.51,10.43a17.1,17.1,0,0,1-1.34,4.29c-1.15,2.46-2.87,3.52-5,3.22A5,5,0,0,1,407.2,49q-2.32-8.55-4.74-17.06c-1.46-5.2-3-10.38-4.39-15.59-.38-1.4-.6-2.74-2.68-2.78a10.4,10.4,0,0,0-.66,1.95q-1.44,11.21-2.8,22.42c-.1.75-.21,1.49-.26,2.25-.29,4.15-.1,4.37,4.06,5,.62.09,1.39,0,1.81.37a3.22,3.22,0,0,1,1.34,2,2.36,2.36,0,0,1-1.26,1.89,10.27,10.27,0,0,1-4,.2c-5-.76-9.88-1.7-14.83-2.5-1.31-.21-2.65-.31-2.66-2,0-1.85,1.31-2.14,2.84-2.21,5-.23,6.17-1,6.91-5.93,1.35-8.81,2.5-17.65,3.63-26.49.31-2.41-.27-3-2.77-3.52-1-.22-2-.48-2.92-.72a2,2,0,0,1-1.61-2.57,2.18,2.18,0,0,1,2.52-2.18c.75.05,1.5.15,2.24.25,3.23.43,6.45,1,9.69,1.26,1.73.16,2.75.68,3.25,2.46,2.92,10.39,6,20.76,8.9,31.15.61,2.14,1,4.32,3.76,5.74.65-9.7,4.68-26.07,3.17-31.31-1.12-.31-2.5-.75-3.91-1.06-2.24-.5-2.91-1.19-2.56-2.86s1.3-2.12,3.53-1.68c1,.2,1.93.6,2.92.75,3.22.49,6.43,1,9.67,1.33C427.76,7.71,430.15,7.78,431.75,9.92Z"/><path class="cls-1" d="M626.65,137.83a52.2,52.2,0,0,0-6.39,5.79c-2.07,2.13-3.76,2.83-5.11,1.73s-.68-3,1.43-5.17c1.58-1.62,3.2-3.19,4.69-4.88a2.79,2.79,0,0,0,.06-4.05c-2.66-3.18-5.25-6.42-7.85-9.66a3.56,3.56,0,0,0-4.69-1,12.72,12.72,0,0,0-6.62,5.89c-1.11,2.16-.74,3.57,1.29,5.23,2.25,1.85,3.72,2,5.65.4.68-.55,1.28-1.21,2-1.7,1.7-1.16,3.43-1.25,5.64.22a33.32,33.32,0,0,1-3,3.88c-3.57,3.53-7.24,7-10.88,10.41a13.34,13.34,0,0,1-1.76,1.42c-2.13,1.41-2.34,1.37-4.92-.69,0-3.73,4.38-4.2,5.54-7.08-1.25-3.44-2.08-4.53-5.5-6.92a60.39,60.39,0,0,0-12,11c3.55,6,7.88,10.9,14.2,14.42,1.39-1.23,2.71-2.52,4.14-3.67a32.6,32.6,0,0,1,4.88-3.44,3,3,0,0,1,2.64.54c.4.34.26,1.66,0,2.39a8.71,8.71,0,0,1-1.72,2.45,41.75,41.75,0,0,1-11.84,9.32c-2.72-3.08-5.63-5.88-8-9.1a72.7,72.7,0,0,0-13-14.07c-3.21-2.63-3.85-4.48-3.73-8.26,2.07-1.16,3.45,0,4.81,1.44,2,2.13,2.69,2.26,5.12.94a12.33,12.33,0,0,0,2.39-1.81q9.3-8.57,18.55-17.18c3.18-2.95,3.26-3,.79-6.48-1.27-1.76-1.17-3.43-.43-5.71a20.11,20.11,0,0,1,2.67,1.33,12.17,12.17,0,0,1,1.89,1.84q9.66,10.58,19.29,21.18c.26.27.5.56.75.85C631.22,133.85,631,134.62,626.65,137.83Z"/><path class="cls-1" d="M652.61,545.14a25.81,25.81,0,0,1-2.66,3.65,103.06,103.06,0,0,0-11.46,16.33,67.09,67.09,0,0,1-4.48,6.51,35.57,35.57,0,0,1-3.37,3.34c-4.83-2.83-9.37-5.68-13.26-9.46a4,4,0,0,1-1-1.58c-.55-1.74.73-3.17,2.41-2.48a39.48,39.48,0,0,1,5.59,3.07c4.05,2.48,5.82,2.45,8.79-1.12,2.39-2.89,4.33-6.15,6.47-9.25.92-1.32,1-2.6-.37-3.65-2.73-2.15-5.5-4.26-8.25-6.38-2.59,2.11-4.48,4-4.91,7a2.45,2.45,0,0,0,1.52,3,15,15,0,0,1,3.94,2.78,2.37,2.37,0,0,1,.29,2.29c-.37.53-1.48.61-2.29.74-.31.06-.72-.22-1-.44-5.24-3.67-10.51-7.3-15.67-11.08-1-.72-1.49-2.07-2.36-3.31,2.85-1.64,4.68-.73,6.52.85,3,2.62,3.72,2.51,6.22-.7.31-.39.6-.81.88-1.23,1.73-2.62,1.83-3.23-.57-5-2.9-2.16-6.07-4-9.14-5.91a2.89,2.89,0,0,0-3.78.45,37.39,37.39,0,0,0-8.8,12.12,3.61,3.61,0,0,0,.35,2.76,13.18,13.18,0,0,0,5.84,5.67c2.82,1.47,2.89,2,1.28,5.74a20.39,20.39,0,0,1-3.69-1.46c-3.27-2.09-6.53-4.23-9.63-6.57-2.42-1.82-2.46-2.32-.94-5.07a65,65,0,0,1,3.7-5.68q6.36-9.09,12.8-18.16a28.93,28.93,0,0,1,2.8-3.53c1.15-1.19,2.54-2.05,4.45-1.42.84,2.92-1.73,4.81-2.33,7.52a15.83,15.83,0,0,0,2,2c7.74,5.6,15.45,11.23,23.29,16.68,3.43,2.39,3.54,2.18,6.68-.67,1.26-1.14,2.37-2.63,4.43-2.6C654,542.46,653.4,543.85,652.61,545.14Z"/><path class="cls-1" d="M48,396.73c-3.36.33-3.85,0-4.06-2.2-.39-4.19-2-5.66-6.23-5.47-2.51.11-5,.55-7.5.7-4.38.27-8.78.38-13.16.67a47.16,47.16,0,0,0-6.71.85c-2.81.59-3.67,1.78-3.89,4.74a9.27,9.27,0,0,1-.19,2.61c-.26.65-1.16,1.58-1.64,1.5a3.91,3.91,0,0,1-2.16-1.53c-.32-.39-.08-1.21-.13-1.84C1.59,387.88.87,379,.19,370.12A48.84,48.84,0,0,1,0,364.85c.1-2.88,1.16-4.28,4-4.62,4-.48,8-.68,12-.9,1.38-.08,2.9,0,3.14,1.88a3.2,3.2,0,0,1-2.87,3.4c-1.61.21-3.27.06-4.9.11-3.31.1-4.88,1.24-5.74,4.35-1.46,5.24-.07,10.19,1.69,15.08A2.32,2.32,0,0,0,10,385.63c3.22-.35,6.45-.72,9.79-1.1,1.37-3.1,0-5.88-.71-9.19-1.53,0-3,0-4.47,0a5.93,5.93,0,0,1-2.59-.19A3.58,3.58,0,0,1,10.38,373c-.1-.58.74-1.52,1.39-2a4,4,0,0,1,2.18-.37c5.66.1,11.31,0,16.85-1.42a4.18,4.18,0,0,1,1.12-.1,2.06,2.06,0,0,1,2.28,2c.17,1.43-.22,2.54-1.85,2.69-1.37.13-2.76.14-4.14.2a2.79,2.79,0,0,0-3,2.73c-.66,6.77-1.09,7.55,5.86,7.36a38.67,38.67,0,0,0,7.81-.93c3-.71,4.33-2.39,4.06-5.49-.44-5-1.3-9.9-2-15.28h-13c-1.14-4-.89-4.39,2.43-4.63,3.63-.27,7.25-.68,10.88-.88,4-.22,5.19.65,5.05,4.64-.34,9.59,1.31,19,1.73,28.57C48,392.33,48,394.57,48,396.73Z"/><path class="cls-1" d="M45.22,328.67c-.69,0-1.73.92-2.1,1.7a10.94,10.94,0,0,0-.79,3.66c-.17,1.89-1.13,2.66-3,2.58-1.51-.05-3,0-4.53,0-7.63-.08-9.13-1.61-8.89-9.09.21-6.62,2.9-9.32,9.59-9.38,2.38,0,4.76.41,7.14.44,1,0,2.52-.14,3.06-.81,2.12-2.65,4-5.54,3.79-9.19-.09-2-.71-3.66-2.72-4.43-2.54,2-2.58,2.13-3,5.74-.3,2.78-.69,3.22-3.5,3.25a25.72,25.72,0,0,1-4.87-.44c-3.43-.64-6.49-.28-8.93,2.55a10.78,10.78,0,0,1-1.94,1.47c-.31-.19-.46-.22-.51-.31-.3-.55-.6-1.09-.86-1.66-1.79-4-5-5.8-9.21-6.11-4.46-.32-8,1.48-10,5.36a28.07,28.07,0,0,0-2.44,8.2,66.85,66.85,0,0,0-.67,9.39c-.12,4.78-.1,9.56-.12,14.34,0,1.27.43,2.3,2,2.13a2,2,0,0,0,2-2.6c-.05-.37-.21-.73-.26-1.1-.33-2.39.14-3.26,2.49-3.73a22,22,0,0,1,5.6-.49c5.26.36,10.51.91,15.75,1.43,2.75.28,5.52.48,8.22,1,5.15,1,5.87,2.26,4.45,7.22-.06.2.1.47.29,1.23l4,.22c.22-1.18.41-1.91.48-2.64q.78-8.06,1.52-16.11a3.44,3.44,0,0,0-.14-1.85C46.63,329.83,45.89,328.7,45.22,328.67Zm-24.89,6.11c-3.81,0-7.27,0-10.71,0a3.22,3.22,0,0,1-3.3-2.56c-1.2-4.6-1.32-9.2.83-13.56,1.34-2.74,3.54-4.58,6.82-4.44,3.09.14,5.07,2,6.27,4.68a18.72,18.72,0,0,1,1.3,4.67C22.16,327.47,21.09,331.19,20.33,334.78Z"/><path class="cls-1" d="M448.84,696.82a7.51,7.51,0,0,1-7.11,6.17,15.73,15.73,0,0,1-8.7-1.93,34.84,34.84,0,0,0-6.2-2.65c-3.28-.94-4.71-.2-7,3a6.86,6.86,0,0,1,1.31.6,2.51,2.51,0,0,1,0,4.29c-1.76,1.08-5.13.29-6.33-1.49-2.89-4.28-2.51-11.4,1.15-15.91a27.43,27.43,0,0,1,5.54-5c2.76-2,5.83-3.47,8.65-5.35a24.56,24.56,0,0,0,5.22-4.26c3.52-4.19,2.32-9.54-2.56-12a11.18,11.18,0,0,0-8-1,17.82,17.82,0,0,0-8.13,4.51c-1.55,1.5-1.5,2.21,0,3.77.35.36.81.62,1.15,1,1.64,1.76,2.05,4.21.94,5.44a5.12,5.12,0,0,1-6.39.74,5,5,0,0,1-2.47-4.68c0-7.84,2.2-11.16,9.55-14,4.53-1.73,9.16-2.54,14-1.38a13.14,13.14,0,0,1,10.16,13.22,9.8,9.8,0,0,1-3,6.74,52.34,52.34,0,0,1-7.26,5.93c-2.81,1.89-5.88,3.38-8.81,5.1-2,1.17-3.58,2.68-3.42,5.48a7.93,7.93,0,0,0,1.9,0,13.71,13.71,0,0,1,11.5,2,10.42,10.42,0,0,0,6.47,1.6c3.09-.16,3.26-.27,3.87-4.09a26.42,26.42,0,0,1-3.23-.44c-2.69-.71-3.37-3-1.64-5.16a4.65,4.65,0,0,1,7.91.87A14.82,14.82,0,0,1,448.84,696.82Z"/><path class="cls-1" d="M585.89,89a34.57,34.57,0,0,0-5.77-6.43c-4.83-4.21-9.85-8.21-14.84-12.23a26.85,26.85,0,0,0-3.39-2c-1.48,3.32-1.53,4,.51,5.55C565.2,76,565,77,563.46,80A12.9,12.9,0,0,1,562,82.14c-4.91,5.88-9.79,11.8-14.83,17.57a13.77,13.77,0,0,1-4.75,3.51c-1.78.77-3.24-.77-4.72-1.75-1.08-.71-2.49-1-3.38.27s-.36,2.45.6,3.41a30.18,30.18,0,0,0,2.6,2.17q6.19,4.91,12.41,9.8c1.78,1.39,3.54,2.82,5.4,4.1a17.29,17.29,0,0,0,11.46,2.89c9.32-.68,19.16-9.23,21.79-18.92A18.66,18.66,0,0,0,585.89,89Zm-7.65,21.45a32.41,32.41,0,0,1-7.68,6.55c-4.36,2.77-9.06,2.66-13.64.25a23.6,23.6,0,0,1-9.16-8.86c2.48-3.06,4.72-5.92,7.07-8.68,4.24-5,8.44-10,12.84-14.83,2.72-3,3.05-2.88,6.33-.74C584.35,90.89,586.08,101,578.24,110.47Z"/><path class="cls-1" d="M75,195.15c-4.09-3.67-8.45-6.69-13.78-8.19-9.89-2.78-18.5.42-23.46,9.43-3.74,6.81-6.81,14-10.13,21-.7,1.5-1,3.09.55,4.52,2-.56,2.81-2.17,3.43-3.76.85-2.15,2.37-2.49,4.22-1.92a52.79,52.79,0,0,1,6.3,2.42c4.56,2.1,9.07,4.29,13.57,6.5,2.81,1.39,5.58,2.86,8.33,4.38a16.84,16.84,0,0,1,2.3,1.87c-.82,2.6-3.23,4.66-1.77,7.53,3,.38,3.5.13,4.71-2.28,3.07-6.17,6.28-12.28,9.2-18.52S82,201.41,75,195.15Zm-.62,20.68c-1.08,2.12-2.2,4.23-3.44,6.26s-2.33,2.47-4.71,1.85a7.18,7.18,0,0,1-1.39-.55c-7.5-3.77-15.06-7.45-22.49-11.35-5.24-2.76-5.34-3.16-2.76-8.37a43.26,43.26,0,0,1,4.4-7c2.25-2.93,5.15-4.79,7.57-4.3,8.54.61,14.87,2.8,19.87,7.81S77.59,209.62,74.4,215.83Z"/><path class="cls-1" d="M679.77,494.72a4.7,4.7,0,0,1-1.25,2.63,23.92,23.92,0,0,0-4.89,9.66,7.87,7.87,0,0,1-4.22,5.51,12.7,12.7,0,0,1-2.78.37,36.29,36.29,0,0,1,1.11-4.37c1.12-2.89,1-4.07-1.42-5.89a42.9,42.9,0,0,0-6.35-4c-4.93-2.5-10-4.81-15-7.19a17.86,17.86,0,0,0-2.46-.95c-5.15-1.51-9.08.25-10.84,5.31a49.55,49.55,0,0,0-1.59,8.46,2.92,2.92,0,0,0,1.64,3.12c8.09,4.84,16.12,9.79,25,13.25.46.18,1,.25,1.44.45,1.68.73,2.9.34,3.67-1.39a16.7,16.7,0,0,1,1.25-2.32,2.11,2.11,0,0,1,3.24-.68c1.23.74,1.79,1.75.93,3.14-.47.75-.88,1.53-1.38,2.25a40.15,40.15,0,0,0-5.79,11.78c-.91,3.12-1.43,3.28-5.47,2.17.42-1.5.79-3,1.28-4.51,1-2.89,1-3.34-1.69-4.91-3.79-2.22-7.75-4.15-11.62-6.23s-7.68-3.81-11.22-6.17c-7.14-4.74-8.76-10.42-5.29-18.24a32,32,0,0,1,4.68-7.68c3.15-3.71,7.39-5.34,12.2-3.89a78.6,78.6,0,0,1,11.17,4.37c3.51,1.67,6.77,3.85,10.17,5.76a25.32,25.32,0,0,0,4.08,1.93c3.31,1.11,4.67.5,6.36-2.6.18-.33.24-.88.5-1,1.1-.43,2.35-1.15,3.35-.92C679.19,492.06,679.76,493.73,679.77,494.72Z"/><path class="cls-1" d="M105.15,552.49c-4,3.28-8.22,6.22-12.33,9.33-3.31,2.49-6.73,4.86-9.86,7.56-2.67,2.31-2.53,2.56-.52,5.58,1.41,2.12,1.39,2.91-.13,5.4-2,0-3.06-1.38-4.07-2.87-2.54-3.74-5.15-7.43-7.69-11.16a7.51,7.51,0,0,1-1.56-3,4,4,0,0,1,1-2.9c.32-.32,1.87.23,2.59.76a13.38,13.38,0,0,1,1.84,2.36c1.18,1.41,2.52,2,4.25.77,6.7-4.68,13.69-9,20.08-14.06,7.33-5.84,5.52-15.22-3.21-18.89a6.15,6.15,0,0,0-5.79.2c-2.49,1.47-5,3-7.36,4.58-5,3.39-9.87,7-14.92,10.27-1.67,1.1-2.28,2.31-1.61,4.07s1.53,3.39,2.4,5.28c-1.11,2.45-1.29,2.59-3.5,1.59a4.54,4.54,0,0,1-2.29-1.78c-1.85-4.37-4.74-7.94-7.9-11.4a5,5,0,0,1-1.47-4.82c3.43-.81,3.43-.81,5.29,3,3,1,5.48-.36,7.88-2.09,5-3.59,10-7.24,15-10.74a42.19,42.19,0,0,1,6.57-3.66c4.75-2.13,9.09-1.11,12.92,2.24a27.59,27.59,0,0,1,7.31,10C110.32,543.24,110,548.49,105.15,552.49Z"/><path class="cls-1" d="M51.79,298c.43.5.91,1.36.75,1.86a2.32,2.32,0,0,1-1.62,1.32,23.44,23.44,0,0,1-5.62-.14c-3.45-.62-6.84-1.55-10.26-2.35-.49-.12-1-.26-1.45-.39-1.84-.51-2.25-1.86-2-3.52.29-1.82,1.66-2,3.14-1.88,1.86.2,3.72.52,5.59.75,3.18.4,5.62-.93,7.57-3.33a14.64,14.64,0,0,0,3.43-11.23c-.69-5.9-5.83-7.92-10-7.38-1.37.17-2.87,1.56-3.75,2.8-1.67,2.34-2.86,5-4.38,7.47a72.35,72.35,0,0,1-5.4,8.15c-2.78,3.41-6.32,5.47-10.93,3.62-4.76-1.91-8.85-4.65-9.18-10.35-.29-5-.37-10,2.61-14.58.92-1.42.93-3.54,1-5.35s.69-2.61,2.46-2.51A42,42,0,0,1,28,264.34c1.1.47,2,1.23,1.63,2.62a2.33,2.33,0,0,1-2.72,2c-1.12-.1-2.24-.27-3.35-.47-5.28-.94-9.66,1.6-10.93,6.77a18.06,18.06,0,0,0-.19,6.68c.39,2.77,1.94,5.05,5,5.43,3.22.4,6.39,0,8.37-3a29.76,29.76,0,0,0,2.08-4.42c1.09-2.54,2-5.19,3.24-7.62,2.75-5.27,8.31-8.11,13.38-7.08,6.43,1.31,10.52,5.7,11.11,12.06.54,5.91,0,11.57-4.12,16.33a22.08,22.08,0,0,0-1.78,2.92A10.43,10.43,0,0,1,51.79,298Z"/><path class="cls-1" d="M353.54,676.64c-.81-6.5-4.16-11.34-10.86-13a33.39,33.39,0,0,0-8.57-.9c-7.35.18-14,7.2-14,14.54,0,1.76,0,3.52.13,5.27.56,6.52,3.54,10,10,11.51a21.44,21.44,0,0,0,14-1c.88-.4,1.8-.7,2.62-1,.34.39.63.56.63.75.43,10.64-10,15.59-17.39,13.1a5.85,5.85,0,0,1-3-2.13c-.46-.74,0-2.06.1-3.11a3.58,3.58,0,0,0-2.71-4.3,3.4,3.4,0,0,0-4.16,2.83c-.63,3.1-.32,6.15,2.39,8.21a17.28,17.28,0,0,0,5.57,3c12,3.4,23.61-4.44,25.43-16.84A62.56,62.56,0,0,0,353.54,676.64Zm-9.08,10.1c-1.89,2.3-4.36,2.74-7.14,2.62a35,35,0,0,1-4.81-.69c-5.88-1.65-8.38-6.9-6.13-12.59.09-.24.15-.48.22-.72,1-3.1,2.31-6.07,5.8-6.81,4.14-.89,8.26-.64,11.88,2a8.5,8.5,0,0,1,3.45,7.2A13.72,13.72,0,0,1,344.46,686.74Z"/><path class="cls-1" d="M261.26,57.74c-.75-2-2.76-1.3-4.28-.83a7,7,0,0,1-7.54-2c-1.5-1.52-3-3-4.42-4.63-5-5.68-9.79-11.46-14.84-17a27.93,27.93,0,0,0-6.48-5.63c-3.49-2-6.14-.18-6.25,3.85,0,.88,0,1.76,0,2.63.27,11.55.49,23.11.83,34.65.07,2.5-.29,4.39-3.07,5.23-1.46.44-2.76,1.47-1.92,3.4.66,1.5,2.19,1.85,4.23,1,.69-.29,1.28-.81,2-1.1,2.51-1.08,5-2.15,7.58-3.15,1.16-.46,2.41-.7,3.58-1.15,3-1.18,3.37-1.88,2.81-5.72-1.57.54-3.1,1-4.59,1.57-2.08.8-3.6.51-4.46-1.28-1.38-2.85-.76-5.9-.39-8.87,0-.37.62-.79,1.05-1,3.69-1.57,7.37-3.18,11.13-4.57a4,4,0,0,1,3.16.24c2.84,1.95,5,4.49,5.41,8.12-1.93,2.22-5.43,2.49-6.54,5.85,2,1.33,3.73.8,5.34.15,5-2,10-4.08,14.92-6.26C259.9,60.52,262,59.8,261.26,57.74Zm-37-5.34a37.62,37.62,0,0,1-1.31-16.33c3.77,1.17,8.91,7,11.24,12.85Z"/><path class="cls-1" d="M699.24,269.84a14.36,14.36,0,0,0-8-5.88,34.82,34.82,0,0,0-18.59-.15,29.8,29.8,0,0,0-12.16,5.74c-4,3.32-6.3,7.51-5.72,12.84.31,2.86,1,5.67,1.47,8.52a12.1,12.1,0,0,0,6.66,9c.33.18.67.35,1,.51l.83.38,1,.4a23.33,23.33,0,0,0,2.94.93l.75.17c.43.09.86.17,1.3.24l.2,0c.32.05.63.09.95.12s.63.07,1,.09l1,.05.91,0h.06l.87,0a29.8,29.8,0,0,0,5.19-.25q.72-.11,1.44-.24l1.05-.21c.27-.05.53-.11.79-.18s.7-.17,1-.27a34.17,34.17,0,0,0,4-1.37l.74-.31.73-.32.78-.37c.31-.14.62-.29.92-.45C704.2,292.78,706.19,280.12,699.24,269.84Zm-2.43,16.64a20,20,0,0,1-4.36,4.6c-4.66,3.67-10.85,5.58-17.33,6.1-2.87-.74-5.88-1.15-8.59-2.29-6.69-2.83-10.91-13.39-2.63-20.16A25.18,25.18,0,0,1,678.34,269a47.11,47.11,0,0,1,11.16.82,12.35,12.35,0,0,1,5.22,2.81A10.25,10.25,0,0,1,696.81,286.48Z"/><path class="cls-1" d="M368.6,9.25c-2.19-4.51-5.39-8.15-10.54-8.81A54.08,54.08,0,0,0,345,.36c-2.15.25-4.43,1.86-6.06,3.46a22.37,22.37,0,0,0-4.4,6.48c-3.34,7.25-3.33,14.81-1.6,22.48,2.31,10.29,11.2,17.66,23.52,14.87,5.32-1.21,9.39-4,11.74-9.11A33.85,33.85,0,0,0,371.3,24C371.31,17.52,370.49,13.13,368.6,9.25Zm-5.41,25.63a14,14,0,0,1-2.67,4.5c-4.89,5.92-12.77,5.91-17.46-.16-4.45-5.75-5.8-12.49-4.86-19.56a30.15,30.15,0,0,1,2.72-8.52,11.55,11.55,0,0,1,8-6.36c5.76-1.48,10.39.52,13.36,5.75,2.35,4.14,3.19,8.68,3.73,13.52C365.09,27.67,364.31,31.33,363.19,34.88Z"/><path class="cls-1" d="M54.5,423.54c-1.06.76-2.23,1.66-3.47,2.47-10,6.56-20,13.07-29.91,19.66-3.28,2.18-4.25,1.92-3,6.95.63,2.45.39,2.64-3.13,4.06-1.6-7.63-3.18-15.16-4.74-22.66,2.93-.88,3.64-.59,4.21,1.55.38,1.41.66,2.84,1.1,4.76A28.31,28.31,0,0,0,20,438.68c6.8-4,13.54-8.16,20.29-12.26,1.56-.95,3.32-1.69,4.44-4-4.55-.63-8.69-1.29-12.86-1.76-4-.45-8-.8-12-1a66.27,66.27,0,0,0-6.75.22c-1.61.08-2.19,1-2,2.53.18,1.24.38,2.48.49,3.73s-.43,2.2-1.87,2.27-2-.5-2.26-1.91c-.69-3.56-1.64-7.06-2.33-10.62-.44-2.28-.6-4.62-.91-7.13,2.31-.54,3.72-.46,4.2,1.21.79,2.76,3.09,3.18,5.28,3.51,4.34.66,8.71,1.15,13.08,1.55,6.74.63,13.51,1,20.25,1.7C50.8,417.1,53.54,417.35,54.5,423.54Z"/><path class="cls-1" d="M298.36,41.92C297.13,49.83,290,56.15,282,56.74c-7.5.56-13.62-2.14-18-8.14-6.81-9.23-8.37-19.25-3.33-29.8,3.39-7.11,10.82-13.44,21.82-9.93a12.77,12.77,0,0,0,1.89.28,19.33,19.33,0,0,1,1.91-2.87c1.3-1.37,2.82-1.07,3.45.76a69.81,69.81,0,0,1,3.68,17.88c-3.64,1.31-4.06,1.14-4.89-1.78-.17-.6-.3-1.22-.5-1.81-1.74-5.22-5.07-8.15-9.52-8.38-6-.3-10.54,2.33-12.71,7.5A22.31,22.31,0,0,0,264.53,33a28.48,28.48,0,0,0,5.77,13.73c6.89,8.45,15.67,5.34,21,.07,1.1-1.1,1.51-3.12,1.74-4.78a31.09,31.09,0,0,0-.22-5.26c-.06-1.71.68-3,2.44-3.28s2.61,1.12,2.85,2.46A18.08,18.08,0,0,1,298.36,41.92Z"/><path class="cls-1" d="M690.23,246.3a8.48,8.48,0,0,1-2,.92q-5.26,2.06-10.54,4.07l-.7.26c-2.77,1-4,.9-4.68-.51-.84-1.78,0-3.3,2.6-4.67,1.22-.64,2.51-1.16,3.72-1.84,4.23-2.38,5.55-5.44,4.39-10.08-1.82-7.34-5.32-10.46-12.8-11-6.71-.5-13.09.74-18.46,5-4.89,3.91-7.78,9-6.72,15.44,1.12,6.84,7.12,10.76,13.88,9.41,1-.2,2-.46,3-.61a2.39,2.39,0,0,1,2.89,1.8c.47,1.5-.29,2.42-1.55,3-5.49,2.6-10.74,2-15.7-1.37-8.06-5.46-11.49-19.87-3.23-29.08,5.44-6.07,15.3-10.12,23-10.17a77,77,0,0,1,8,1.75c7.67,2.51,11.52,8.09,12.21,16,.09,1.13.18,2.26.17,3.39a4.09,4.09,0,0,0,2.44,4.2C692.21,243.33,692.14,244.89,690.23,246.3Z"/><path class="cls-1" d="M649.69,161.85a2.47,2.47,0,0,1-1.07,1.75,2.52,2.52,0,0,1-2-.28,6.93,6.93,0,0,1-1.5-1.67c-2.26-2.66-3.34-2.88-6.48-1.2-1.43.77-2.85,1.6-4.21,2.51-6.27,4.19-12.57,8.35-18.77,12.65-2.91,2-3.39,3.33-1.64,6.35a62.14,62.14,0,0,0,7,9.71c2,2.3,4.22,2.14,6.73.3.8-.6,1.53-1.3,2.32-1.93,2.23-1.76,4.51-2,7-.13,0,2.11-1.25,3-2.52,3.81-2.92,1.95-5.86,3.86-8.73,5.88-2.49,1.75-3.42,1.75-5.49-.43a17.71,17.71,0,0,1-1.87-2.37c-5-7.54-10-15.08-15-22.66-1.34-2.06-2.72-4.18-2.87-6.77,2.93-.62,2.93-.62,6.64,4.52a35.78,35.78,0,0,0,3.64-1.38A128.72,128.72,0,0,0,634,155.61a18.28,18.28,0,0,0,1.93-1.8c1.75-1.92,1.85-2.76.72-5.07a14.25,14.25,0,0,0-.75-1.31c-.65-1-1-2.12.19-3a2.36,2.36,0,0,1,3.38.41,5.53,5.53,0,0,1,.47.59c3,4.76,6.1,9.51,9.11,14.29A3.69,3.69,0,0,1,649.69,161.85Z"/><path class="cls-1" d="M396.69,677.45c-1.47,1.72-3,3.38-4.6,5A21.86,21.86,0,0,0,385.33,699c.07,2.64.11,5.28,0,7.91s-.9,3.58-2.82,3.64c-2.13.06-3.46-1.07-3.54-3.48-.16-5.4-.15-10.8,1.18-16.1a16.8,16.8,0,0,1,4.52-7.69c2.19-2.24,4.28-4.59,6.32-7a13.41,13.41,0,0,0,1.31-2.84c-1.73,0-2.94-.1-4.14,0a11.29,11.29,0,0,1-7.77-2.22,24.94,24.94,0,0,0-5-2.64c-2.55-1-4.22-.09-4.7,2.62a26.18,26.18,0,0,0-.05,5.6c.09,2.22.3,4.44.48,7.09-3.41-.19-4.9-1.53-5.34-4.1a21,21,0,0,1-.25-2.24c-.25-3.75-.48-7.5-.72-11.25-.16-2.53.59-3.4,3-2.83A9.45,9.45,0,0,0,374,663c2.79-1.1,5.7-.11,8.24,1.47,1.28.8,2.41,1.83,3.7,2.6,2.18,1.31,4.46,2.29,7.25,1.24-.27-.91-.52-1.73-.78-2.54-.81-2.59-.63-3.35,1-4.14,2-1,4.36-.63,5.44,1a6.65,6.65,0,0,1,1,2.78C400.44,669.87,399.64,674,396.69,677.45Z"/><path class="cls-1" d="M66.45,468.75a2.65,2.65,0,0,1-3.6-1.09,11.61,11.61,0,0,1-.59-1.78c-1.06-2.95-2-3.61-5.09-2.62-5.84,1.88-11.61,4-17.4,6.07-4.12,1.47-8.21,3-12.39,4.53-.62,3.23,1.21,6.12-.32,8.85-3.51-.46-3.87-.63-4.48-3.53a45.83,45.83,0,0,0-4.32-12.39,6.88,6.88,0,0,1-.76-3.58,2.77,2.77,0,0,1,1.68-2,3.55,3.55,0,0,1,2.44,1.24c.46.46.43,1.39.65,2.1.74,2.46,1.23,2.94,3.81,2.3,5-1.24,9.94-2.57,14.8-4.2s9.84-3.75,14.74-5.69c2.42-1,2.46-1.07,1.89-3.64a15,15,0,0,1-.81-3.25,3.1,3.1,0,0,1,1.17-2.42,2.93,2.93,0,0,1,2.54.78,5.75,5.75,0,0,1,1.48,3c.69,4.54,2.56,8.63,4.45,12.74.27.57.48,1.16.7,1.74C67.45,467,67.89,468.19,66.45,468.75Z"/><path class="cls-1" d="M66.28,245.19c-1.87,5.59-3.7,11.19-5.57,16.78a5.47,5.47,0,0,1-.82,1.68c-1.06,1.31-2.69,1.11-3.18-.51a8.57,8.57,0,0,1-.13-3.64,23.28,23.28,0,0,1,1.13-3.66,16.63,16.63,0,0,0-2.4-1.37c-9.45-3.37-18.89-6.79-28.4-10-3.59-1.21-3.79-.89-5.23,2.65a5.05,5.05,0,0,1-1,2,2.88,2.88,0,0,1-2.27.71,3.24,3.24,0,0,1-1.74-2.05,4.73,4.73,0,0,1,.78-2.82,40.33,40.33,0,0,0,4.39-12.77c.42-2.33,1.4-3.95,4.06-4.09,1.44,1.59,1.21,3.38.67,5-1.27,3.83-.2,4.45,3,5.52q12.84,4.36,25.76,8.43a34.33,34.33,0,0,0,5.61.76c.44-1.65.71-2.86,1.09-4.05a2.57,2.57,0,0,1,3.17-2C67,242.28,66.75,243.77,66.28,245.19Z"/><path class="cls-1" d="M327.22,47.23a8,8,0,0,1-3.5,1.17c-4,.57-8,1-11.94,1.48-1.13.13-2.26.13-3.39.19-2,.1-3.07-.79-3-3.34a23.39,23.39,0,0,1,3.35-.77c3.83-.31,3.93-.31,4-4.21a80.1,80.1,0,0,0-.19-9.43c-.77-6.86-1.71-13.71-2.78-20.53-.51-3.24-.72-3.22-3.9-3.3-1.48,0-3,0-4.42,0-.35-3.57.18-4.51,3-4.29,4.87.37,9.49-.68,14.15-1.75A7.36,7.36,0,0,1,322,2.25c.76.2,1.84,1.2,1.84,1.85s-1,1.47-1.66,2.16c-.13.14-.48.06-.73.09-4.58.62-5.8,1.76-5.4,6.27.67,7.38,1.67,14.73,2.57,22.08.26,2.12.62,4.23,1,6.32.53,2.53,1,2.82,3.59,2.58.87-.08,1.78-.55,2.58-.39s2,.77,2.22,1.43A2.92,2.92,0,0,1,327.22,47.23Z"/><path class="cls-1" d="M299.22,705.32c-1,1.94-2.5,2.34-4.67,1.66a46.5,46.5,0,0,0-15.13-2.57c-2.59.06-2.84-.49-2.65-3.93,1.74-.15,3.23-.2,4.71-.42,3.09-.46,4.1-1.39,4.64-4.52.56-3.33.93-6.7,1.44-10,.65-4.21,1.42-8.4,2-12.62a22.4,22.4,0,0,0,.19-5.6c-.36-3-1.65-4-4.69-4.4-.72-.09-1.44-.24-2.27-.39a14.18,14.18,0,0,1-.3-1.92,19,19,0,0,1,.3-2.3l13.91,2.56c1,2.73-.23,5.41-.62,8-1.22,8.43-2.76,16.81-4.17,25.22-.1.62-.14,1.25-.2,1.87-.41,4.21-.22,4.54,3.8,6.07C297.15,702.64,298.94,703.05,299.22,705.32Z"/><path class="cls-1" d="M602.23,575.46c-.09,5.45-3.43,9.08-8.35,9.06-5.64,0-9.49-3.45-9.46-8.42,0-5.6,3.67-9.45,9-9.46C599.06,566.63,602.32,569.87,602.23,575.46Z"/><path class="cls-1" d="M124.14,576.26c-.2,5.66-3.9,9.67-8.68,9.42-5.41-.29-9.35-4.39-9.15-9.52s4.51-8.72,10-8.6C121.07,567.67,124.32,571.28,124.14,576.26Z"/></g></g></svg>