<svg xmlns="http://www.w3.org/2000/svg" viewBox="0 0 624.09 119"><defs><style>.cls-1{fill:#1da0a3;}</style></defs><g id="Capa_2" data-name="Capa 2"><g id="Capa_1-2" data-name="Capa 1"><path class="cls-1" d="M334.48,62c6.23-5.73,12.16-9.89,16.39-15.35C362.67,31.41,357,11.2,338.81,5.18,314.2-3,289,4.57,264.31,2c5.25,5.82,12.88,10.33,13.08,15.14,1.15,27.54.89,55.15.14,82.71-.1,4-5.35,7.86-8.43,11.61-1,1.26-2.72,2-5.26,3.75h50.64c-5-3.69-12.75-6.61-13.18-10.37-1.56-13.37-.61-27-.61-40.56l3.1-1.9c3.77,3,8.7,5.3,11.1,9.15,7.65,12.32,14.31,25.24,21.49,37.86,1.33,2.32,3.17,6.06,4.94,6.16,10.69.58,21.42.29,32.14.29C351,103.07,346.77,79.29,334.48,62ZM300.1,56.34c0-11-.13-21.52,0-32,.12-6.45-1.5-14,8.18-15.72,9.24-1.67,19.3,3.54,22.56,11.9C339.36,42.15,325.34,59.54,300.1,56.34Z"/><path class="cls-1" d="M239.1,35.78c-.09,24.06.08,48.12-.16,72.18,0,3.11-1.88,6.19-2.88,9.29-3.12-1.71-7.07-2.73-9.22-5.25-22-26-43.79-52.18-65.65-78.3-1.07-1.27-2.44-2.3-5.74-5.38,0,25.7-.76,48.67.55,71.52.31,5.38,7.55,10.38,11.41,15.31H131.9c18.94-5.34,14.83-20.53,15-33.71.14-14.86.1-29.72,0-44.58C146.78,23.1,149.08,8,126.64,5.72c17.1-7.32,35.56-3.87,44.57,6.75,19,22.4,37.92,44.86,59.62,66.75V56.75c0-9.2,0-18.4,0-27.6-.12-17-.15-17-17.3-25.65h40.61C236.15,8.7,239.14,23,239.1,35.78Z"/><path class="cls-1" d="M70.94,115.26H119c-5.12-5.35-12.43-10-15.23-16.46C90.91,68.88,79.37,38.41,67.19,8.2,66,5.24,63.7,2.72,61.92,0c-2.48,2.55-6,4.67-7.28,7.72C44.15,32.51,34.27,57.56,23.81,82.36,18.51,94.91,16.19,109.89,0,115.12H38.57c-15-8.77-15-8.77-9.22-23.61a16.55,16.55,0,0,1,1.25-2.93c2.69-4.26,5-11.68,8.27-12.12C48.92,75.11,61.57,73,69,77.72c6.79,4.34,9,17,11.17,26.41C80.76,106.89,74.42,111.24,70.94,115.26ZM39.18,67.2c4.65-11.56,8.61-21.43,12.57-31.3l2.56,0L66.78,67.2Z"/><path class="cls-1" d="M422.87,46.62C399.39,46.33,382.53,61,382,82.15c-.53,22.26,14.26,36.06,39,36.38,24.38.32,40.78-14.25,40.87-36.31C462,60.9,446.65,46.91,422.87,46.62Zm15,50.73c-.36,7.25-4.12,13.8-12.79,14.83S411.45,108,409,100.94c-2.48-7.25-3.46-15-5.1-22.53l1.11-.25c.13-2.12.21-4.25.4-6.36.83-9,3-17.51,13.84-18.47,10-.9,15.16,6.3,16.7,14.7A127.51,127.51,0,0,1,437.89,97.35Z"/><path class="cls-1" d="M611.29,97.47c.3-11.29,1.09-22.71-.2-33.85-.58-5.06-4.55-11.35-8.9-14-10.6-6.54-35.25-2.65-44.33,6.13-2.46,2.39-5,7.13-4.14,9.78.76,2.46,6.07,5.13,9.12,4.87,3.23-.28,6.32-3.73,9.2-6.11,3.68-3.05,7.1-6.42,10.64-9.65,2.66,4.4,5.89,8.58,7.77,13.29,1,2.62-.16,6.12-.29,8.18-11.26,3.86-21.94,6.62-31.78,11.16-7.92,3.66-10.44,11.34-8.18,19.85,2.14,8,8.43,11.82,16.08,11.07,8.19-.8,16.19-3.55,25.23-5.67,10.24,8.33,21.12,8.53,32.58-2.51C611.85,111.31,611.09,105,611.29,97.47Zm-30.47,10.29c-3.22-.12-8.2-5-9-8.44-1.87-8.4,5.07-13.65,17.77-14.53C592,101.91,589.81,108.1,580.82,107.76Z"/><path class="cls-1" d="M540,102.22c-4.16,4.09-7.72,9.17-12.6,12.07-15.59,9.26-38,4.28-47.95-9.9-10-14.38-6.51-36,8-47.76C500,46.46,514.64,44.73,529.89,48c3.16.68,7.09,4,8,6.91.74,2.33-1.85,7.42-4.25,8.53s-7.24,0-9.93-1.71c-14.09-9.15-26.45-4-28.3,12.53-1.24,11,.3,21.74,10.21,28.51,11,7.52,21.58,2.95,31.58-3.88Q538.61,100.57,540,102.22Z"/></g></g></svg>