<?xml version="1.0" encoding="utf-8"?>
<!-- Generator: Adobe Illustrator 25.2.3, SVG Export Plug-In . SVG Version: 6.00 Build 0)  -->
<svg version="1.1" id="Capa_1" xmlns="http://www.w3.org/2000/svg" xmlns:xlink="http://www.w3.org/1999/xlink" x="0px" y="0px"
	 viewBox="0 0 1440 3092" style="enable-background:new 0 0 1440 3092;" xml:space="preserve">
<style type="text/css">
	.st0{opacity:0.7;}
	.st1{clip-path:url(#SVGID_2_);}
	.st2{opacity:0.07;fill:#1DA1A3;}
	.st3{opacity:0.07;fill:#FDD835;}
	.st4{opacity:0.07;fill:none;stroke:#1DA362;stroke-width:14;stroke-miterlimit:10;}
	.st5{opacity:0.07;fill:#F9A825;}
	.st6{opacity:0.1;fill:none;stroke:#004844;stroke-width:16;stroke-miterlimit:10;}
	.st7{opacity:0.07;fill:none;stroke:#F57F17;stroke-width:14;stroke-miterlimit:10;}
	.st8{opacity:0.07;fill:none;stroke:#004844;stroke-width:9;stroke-miterlimit:10;}
	.st9{opacity:0.07;fill:#FFFFFF;stroke:#FFFFFF;stroke-width:15;stroke-miterlimit:10;}
	.st10{opacity:0.07;fill:none;stroke:#F57F17;stroke-width:15.5822;stroke-miterlimit:10;}
	.st11{opacity:0.07;fill:none;stroke:#1DA362;stroke-width:17.7335;stroke-miterlimit:10;}
	.st12{opacity:0.07;fill:#FFFFFF;stroke:#FFFFFF;stroke-width:17.3777;stroke-miterlimit:10;}
	.st13{opacity:0.07;fill:none;stroke:#004844;stroke-width:16;stroke-miterlimit:10;}
</style>
<g class="st0">
	<defs>
		<rect id="SVGID_1_" x="0" class="st0" width="1440" height="3092"/>
	</defs>
	<clipPath id="SVGID_2_">
		<use xlink:href="#SVGID_1_"  style="overflow:visible;"/>
	</clipPath>
	<g class="st1">
		<ellipse class="st2" cx="0" cy="754" rx="321" ry="296"/>
		<circle class="st3" cx="276.5" cy="900.5" r="126.5"/>
		<circle class="st4" cx="150" cy="484" r="110"/>
		
			<ellipse transform="matrix(0.8271 -0.5621 0.5621 0.8271 -1003.4852 1150.8959)" class="st2" cx="1368.6" cy="2206.23" rx="247.59" ry="247.94"/>
		<circle class="st3" cx="1091.27" cy="2159.48" r="126.5"/>
		<circle class="st4" cx="1430.02" cy="2432.84" r="110"/>
		
			<ellipse transform="matrix(0.7753 -0.6316 0.6316 0.7753 -1642.6531 748.2553)" class="st5" cx="230.35" cy="2682.89" rx="321" ry="296"/>
		<circle class="st3" cx="276.52" cy="2265.58" r="126.5"/>
		<circle class="st6" cx="161.51" cy="2377.39" r="110"/>
		<circle class="st3" cx="1267.52" cy="2835.58" r="126.5"/>
		<circle class="st6" cx="1152.51" cy="2947.39" r="110"/>
		<circle class="st7" cx="40" cy="1930" r="110"/>
		<circle class="st7" cx="0" cy="55" r="110"/>
		<circle class="st7" cx="1237" cy="714" r="110"/>
		<circle class="st4" cx="1347" cy="824" r="110"/>
		<circle class="st7" cx="1237" cy="1219" r="110"/>
		<circle class="st8" cx="53" cy="1392" r="110"/>
		<circle class="st3" cx="1446" cy="1427" r="308"/>
		<circle class="st5" cx="187" cy="1502" r="134"/>
		<circle class="st7" cx="1158" cy="146" r="110"/>
		<circle class="st5" cx="1292" cy="256" r="134"/>
		<line class="st4" x1="53" y1="74.45" x2="187" y2="74.45"/>
		<line class="st9" x1="210" y1="1535.5" x2="344" y2="1535.5"/>
		<line class="st9" x1="1091" y1="2237.5" x2="1225" y2="2237.5"/>
		<line class="st10" x1="0" y1="1176.5" x2="166" y2="1176.5"/>
		<line class="st11" x1="1225" y1="483.5" x2="1440" y2="483.5"/>
		<line class="st12" x1="1072" y1="1427.5" x2="1298" y2="1427.5"/>
		<line class="st13" x1="1038" y1="2638.5" x2="1172" y2="2638.5"/>
	</g>
</g>
</svg>
